<svg width="58" height="58" viewBox="0 0 58 58" fill="none" xmlns="http://www.w3.org/2000/svg">
<g clip-path="url(#clip0_393_5192)">
<path d="M24.5274 3.46264L24.5274 6.9354L19.8383 6.9354C17.2488 6.9354 15.1493 9.00863 15.1493 11.5657L15.1493 48.6084C15.1493 51.1655 17.2488 53.2388 19.8383 53.2388L38.5946 53.2388C41.1841 53.2388 43.2836 51.1655 43.2836 48.6084L43.2836 11.5657C43.2836 9.00863 41.1841 6.9354 38.5946 6.9354L33.9055 6.9354L33.9055 3.46264L24.5274 3.46264Z" stroke="#999999" stroke-width="1.43284" stroke-miterlimit="10" stroke-linecap="round" stroke-linejoin="round"/>
<path d="M29.6992 41.8464C29.8439 42.1678 30.201 42.3362 30.541 42.2434C30.8811 42.1506 31.1032 41.8242 31.0646 41.4739L30.0159 31.9455L33.7611 31.9455C34.0042 31.9455 34.2307 31.8222 34.3627 31.618C34.4947 31.4139 34.5141 31.1567 34.4143 30.935L28.7333 18.3178C28.5886 17.9964 28.2316 17.828 27.8915 17.9208C27.5515 18.0136 27.3294 18.3399 27.368 18.6903L28.4167 28.2187L24.6715 28.2187C24.4284 28.2187 24.2018 28.342 24.0699 28.5462C23.9379 28.7503 23.9184 29.0075 24.0183 29.2292L29.6992 41.8464Z" stroke="#009EFF" stroke-width="1.43284" stroke-linejoin="round"/>
<path d="M18.1792 12.1194L18.1792 29" stroke="#009EFF" stroke-width="1.43284" stroke-linecap="round"/>
<path d="M18.1792 32.4626L18.1792 38.5223" stroke="#009EFF" stroke-width="1.43284" stroke-linecap="round"/>
</g>
<defs>
<clipPath id="clip0_393_5192">
<rect width="58" height="58" fill="white"/>
</clipPath>
</defs>
</svg>
