<svg width="220" height="140" viewBox="0 0 220 140" fill="none" xmlns="http://www.w3.org/2000/svg">
<g clip-path="url(#clip0_389_5807)">
<path fill-rule="evenodd" clip-rule="evenodd" d="M18.9424 0C25.377 1.76804 31.8632 3.48478 38.4813 5.06926C37.4911 10.1922 35.9464 14.7612 35.3491 20.2769C31.2672 19.3607 27.2973 17.9552 22.9694 18.7859C22.3059 18.1796 21.4943 18.6545 20.7321 18.4877C19.5609 18.2313 18.652 17.3089 17.5998 17.2949C16.6529 18.1906 14.9737 17.5472 14.3185 16.8476C14.6513 15.4653 14.6236 13.303 12.827 13.5675C12.744 12.0415 10.7329 13.2114 10.5898 11.9276C10.9049 11.3478 11.8062 11.3542 11.7831 10.4366C12.0146 9.80763 10.9549 10.4692 11.1864 9.84014C11.0236 9.13081 11.6715 9.23176 12.2304 9.24369C11.1477 7.22887 11.0405 3.49343 11.4847 1.19261C13.2147 2.64393 15.0035 4.0365 17.8983 4.32369C18.0553 3.97626 18.2778 2.92381 18.644 3.2799C19.1226 3.98491 18.2963 3.30137 18.1965 3.87635C18.3785 4.73808 18.8225 5.33796 19.3898 5.81468C19.1803 3.79389 19.894 1.59134 18.9424 0Z" fill="#999999"/>
<path fill-rule="evenodd" clip-rule="evenodd" d="M38.7797 5.06927C39.7596 5.38182 40.977 5.45712 41.9119 5.81484C41.551 7.49177 41.2912 9.26965 40.7187 10.735C41.178 11.6689 41.972 12.6435 41.3153 13.8659C41.5099 14.6158 41.9918 15.0782 42.6577 15.3569C43.3597 16.7923 43.4501 18.8389 45.3425 19.0843C44.9496 20.9776 44.0532 22.3678 43.5528 24.1536C43.7097 24.6924 44.1189 24.9792 44.4476 25.3463C45.2299 25.3375 45.6746 24.3489 46.2375 24.6009C46.2083 27.0653 46.775 28.9341 48.1766 29.9682C47.8827 30.7901 48.0741 31.6684 48.6241 32.0557C49.5299 31.2681 51.8013 31.6941 53.397 31.9066C54.2488 32.0622 53.8609 30.9788 54.7394 31.161C56.0645 32.7097 54.9764 35.0921 54.5902 37.5721C54.1667 40.2915 54.0232 43.0423 53.546 45.325C45.4912 44.3316 38.2272 42.5477 30.7258 41.0013C31.5898 37.1436 32.3858 33.218 33.7088 29.8191C33.5025 29.4787 33.3687 29.0658 32.6648 29.2227C32.9431 28.1094 33.1663 26.9409 34.4547 26.8371C34.9606 25.3053 35.8242 24.1309 36.8411 23.1098C36.5845 21.3328 35.5035 20.9418 35.7971 18.4878C36.2553 14.6535 38.3039 8.70451 38.7797 5.06927Z" fill="#999999"/>
<path fill-rule="evenodd" clip-rule="evenodd" d="M42.2103 5.8147C55.2701 8.71316 69.2895 10.6524 83.8239 12.0767C83.3183 19.0758 82.6966 25.9587 82.0341 32.8009C73.1237 32.0168 64.5242 30.9217 56.0814 29.6699C55.8161 30.3984 55.7167 31.2933 55.6339 32.2045C55.0674 31.9756 55.3647 30.8832 54.5899 30.8626C53.721 30.6401 54.0563 31.6215 53.3967 31.6082C51.8806 31.3161 49.2246 31.0752 48.6238 31.6082C48.2025 31.1552 48.4072 30.6542 48.4746 29.9681C47.025 28.7832 46.5355 26.6384 46.3865 24.1534C45.382 24.0936 45.3329 24.9887 44.4474 25.0481C43.1122 23.3076 45.5831 21.3016 45.6406 19.0843C43.3822 18.4595 43.7417 15.2176 41.7626 14.3133C41.8859 13.2692 41.9658 11.7202 41.166 10.8841C41.5119 9.19182 41.895 7.53711 42.2103 5.8147Z" fill="#999999"/>
<path fill-rule="evenodd" clip-rule="evenodd" d="M213.586 8.05109C214.16 10.6087 215.128 12.772 215.675 15.3567C216.172 15.3567 216.669 15.3567 217.166 15.3567C217.515 16.1014 217.346 17.3634 218.21 17.5931C218.73 17.5493 218.198 17.1896 218.508 17.1458C219.444 17.2049 219.533 18.1097 220 18.6368C219.439 20.2627 217.863 20.8739 216.868 22.066C216.476 22.1101 216.75 21.4875 216.271 21.6186C215.568 21.8556 214.839 22.5383 214.929 23.1096C214.693 23.122 214.36 23.038 214.332 23.2587C213.983 23.2102 214.187 22.6083 213.885 22.5131C212.9 22.6427 213.796 24.3404 213.437 25.1969C213.188 25.3946 212.937 25.5919 212.393 25.4951C212.541 26.6798 211.005 27.2867 210.454 26.837C209.469 27.8615 209.575 29.6582 209.112 31.4589C208.519 31.1566 208.476 30.3051 207.62 30.2661C206.977 26.6853 205.527 23.9097 204.786 20.4259C205.07 20.4898 205.161 20.747 205.532 20.7241C205.298 18.7009 206.412 18.0253 206.725 16.5495C206.165 16.0916 206.028 14.2909 206.725 13.8658C206.238 11.3199 207.632 9.55445 208.366 7.75286C208.933 7.93194 208.719 8.89134 209.559 8.7965C210.677 7.68814 211.958 6.87771 213.586 8.05109Z" fill="#999999"/>
<path fill-rule="evenodd" clip-rule="evenodd" d="M115.444 11.1822C115.795 11.1789 115.883 11.4389 116.339 11.3313C116.834 12.3272 116.595 14.0574 117.383 14.7606C118.436 14.9506 119.868 14.7616 120.217 15.6551C121.283 15.8755 121.596 15.3436 122.007 14.9095C123.903 14.8811 124.714 16.6376 126.481 16.2514C126.564 17.4849 127.897 16.6534 127.675 17.5933C129.062 18.0608 129.934 17.3232 130.658 16.6986C131.11 16.694 130.802 17.4488 131.254 17.4442C133.042 16.7093 133.943 18.0967 135.431 17.7424C133.957 18.755 132.408 19.0194 131.105 19.9788C129.138 21.4273 128.123 23.9105 125.885 25.0481C125.885 26.0421 125.885 27.036 125.885 28.03C125.151 28.9365 123.882 29.3085 123.797 30.8629C123.832 31.3741 124.593 31.1599 124.692 31.6085C124.157 32.7868 124.327 33.8763 124.393 35.485C124.943 36.1742 125.907 36.4563 126.63 36.9759C127.229 37.406 127.512 37.9336 128.122 38.4669C129.053 39.2812 130.879 39.3714 130.508 41.5979C124.112 41.9132 117.529 42.0422 110.82 42.0452C110.384 38.3068 111.997 32.52 109.329 31.0122C109.559 30.5961 110.126 30.5174 110.373 30.1175C110.849 28.4027 109.898 26.9297 109.627 25.3464C109.329 23.6035 109.727 21.6645 109.329 19.9791C109.103 19.023 108.541 18.3969 108.434 17.5936C108.253 16.2368 108.935 14.3789 108.135 13.2697C110.098 13.0983 112.892 13.3849 115.295 13.2697C115.639 12.8674 115.348 11.8314 115.444 11.1822Z" fill="#999999"/>
<path fill-rule="evenodd" clip-rule="evenodd" d="M107.837 13.1203C108.57 14.5141 107.947 15.9911 108.136 17.5931C108.238 18.4649 108.805 19.1767 109.031 20.1278C109.414 21.7442 109.059 23.6874 109.329 25.346C109.531 26.5878 110.397 27.7697 110.075 29.0734C100.586 29.1159 91.8227 28.4331 82.929 27.8806C83.1806 22.4168 83.7242 17.245 84.2713 12.0765C91.9177 12.6333 99.5311 13.2232 107.837 13.1203Z" fill="#999999"/>
<path fill-rule="evenodd" clip-rule="evenodd" d="M13.7221 14.0149C14.2174 14.5408 14.4014 16.1885 13.8713 16.8477C14.3282 17.3352 15.0087 17.5991 15.512 18.0405C16.252 17.9852 17.3277 18.2652 17.4509 17.5931C18.4823 17.637 19.3745 18.5169 20.4341 18.7859C20.7505 18.8663 21.3579 18.5642 21.7765 18.6368C22.2548 18.7197 22.3333 19.0695 22.6713 19.0841C24.5495 19.1648 26.4161 18.7224 28.3392 18.935C30.813 19.2086 33.0405 20.352 35.4986 20.5751C35.5306 21.8764 36.549 21.6499 36.5428 22.6624C36.535 23.8811 34.3707 24.617 34.4545 26.2407C33.3284 26.7551 32.5941 27.661 32.3664 29.0735C32.2025 29.7841 33.2549 29.2787 33.2613 29.8191C32.1173 33.2975 31.3145 37.1169 30.4273 40.8521C20.8152 39.03 12.1155 36.2957 3.28161 33.6956C2.63405 32.432 3.625 30.9471 3.43078 29.2228C6.87723 24.9646 8.66728 19.0509 10.7393 13.4187C12.1561 12.5709 12.3982 13.9731 13.7221 14.0149Z" fill="#999999"/>
<path fill-rule="evenodd" clip-rule="evenodd" d="M142.292 19.9787C141.06 20.7851 140.021 21.7843 139.756 23.557C140.213 23.8682 140.504 22.9826 140.949 22.8114C142.727 22.774 143.158 24.082 144.082 24.8987C144.546 25.2533 144.897 24.5606 145.275 24.6005C145.771 24.6528 145.984 25.3196 146.915 24.8987C147.777 24.5093 148.065 23.6059 149.003 23.4077C150.246 23.1453 151.387 23.4918 152.285 22.6621C152.621 22.7732 152.343 23.4984 152.434 23.8549C153.352 24.9082 154.782 23.6991 155.864 23.5567C155.743 24.8711 155.911 25.8956 156.908 26.0913C154.774 26.4972 153.462 26.7205 151.092 26.2404C150.791 27.6792 147.763 26.3917 147.959 28.3277C147.333 27.2339 146.386 29.0066 145.722 28.1786C144.817 29.2116 144.643 30.9762 143.932 32.2042C143.101 31.7425 143.138 30.4138 143.037 29.2222C142.868 28.8445 142.376 28.7896 141.844 28.7749C141.952 28.3192 141.692 28.2315 141.695 27.8802C138.646 27.8959 136.943 26.5668 134.088 26.3892C133.707 26.0743 133.672 25.4133 133.044 25.3454C133.879 24.9376 134.727 24.5429 135.281 23.8544C138.867 23.8112 138.567 19.8837 142.292 19.9787Z" fill="#999999"/>
<path fill-rule="evenodd" clip-rule="evenodd" d="M203.742 20.8732C204.02 20.7306 204.241 21.3198 204.339 20.8732C205.547 23.7904 206.507 26.9557 207.322 30.2661C207.94 30.7418 208.445 31.3304 208.963 31.9062C207.844 33.7748 205.26 34.9583 202.549 34.7391C202.329 32.2528 202.772 29.5079 202.549 26.8371C202.859 26.2025 203.567 25.966 203.891 25.3461C203.787 23.9003 202.977 22.2893 203.742 20.8732Z" fill="#999999"/>
<path fill-rule="evenodd" clip-rule="evenodd" d="M202.997 22.5133C203.547 24.2554 203.9 25.9531 202.102 26.5389C202.742 29.0958 201.729 32.5275 202.4 34.8882C201.675 35.2072 200.857 35.4329 199.865 35.4847C199.487 33.9238 199.754 31.7182 198.224 31.31C198.029 29.0403 197.388 26.725 196.881 24.1534C198.839 23.5258 201.089 23.1906 202.997 22.5133Z" fill="#999999"/>
<path fill-rule="evenodd" clip-rule="evenodd" d="M131.553 23.5569C131.417 24.2163 130.94 24.5347 130.807 25.197C130.942 25.5571 131.649 25.2605 131.702 25.0479C132.585 25.4568 133.581 25.7534 133.939 26.688C136.804 26.8058 138.411 28.1815 141.397 28.179C141.286 28.7926 141.87 29.1885 142.739 29.2226C142.707 30.6959 143.026 31.818 143.634 32.6518C143.056 33.1737 142.047 34.6665 142.739 35.4847C143.979 34.239 144.878 32.6533 145.871 31.1608C144.723 35.5701 142.762 40.669 144.231 46.0704C140.042 45.9861 134.86 47.5397 131.702 45.7721C131.305 45.0683 131.036 43.8873 131.553 43.0884C130.948 42.3507 130.701 41.2562 130.658 39.9573C128.762 38.3235 126.963 36.5932 124.692 35.3354C124.633 33.787 124.471 32.8609 124.99 31.7571C124.936 31.2146 124.638 30.9166 124.095 30.8624C124.34 29.6167 125.111 28.8956 126.183 28.4769C126.236 27.2381 125.995 25.7043 126.482 24.8986C128.649 25.5714 129.975 23.4737 131.553 23.5569Z" fill="#999999"/>
<path fill-rule="evenodd" clip-rule="evenodd" d="M196.285 24.3024C197.38 26.4101 197.544 29.2151 197.926 31.4589C198.063 31.7193 198.392 31.788 198.82 31.7571C199.816 33.8395 199.258 36.6176 199.566 39.2119C199.789 41.0822 200.876 43.0088 200.014 44.5793C200.34 45.2125 200.243 45.5231 200.163 46.3685C201.579 44.8729 204.318 45.1553 205.682 43.3866C205.808 43.6078 206.057 43.7071 206.427 43.6849C204.617 45.354 202.898 47.1149 199.715 47.4123C199.497 47.5418 199.243 47.6355 199.268 48.0087C199.081 47.3707 200.005 46.562 199.715 45.325C198.094 44.8089 196.634 44.131 194.943 43.6849C194.465 42.7209 193.826 41.9182 193.004 41.2994C187.256 42.3624 181.839 43.7567 175.851 44.5794C175.84 42.1331 177.847 41.7046 178.685 40.1066C178.478 39.1208 177.508 38.8977 177.343 37.8702C179.256 35.9678 182.881 37.0717 185.397 36.2301C186.425 35.717 186.723 34.4744 187.932 34.1427C187.762 33.1597 187.339 32.8366 187.783 31.9063C187.536 31.6065 186.803 31.7932 186.739 31.3098C186.828 30.1564 187.808 29.8931 188.38 29.2225C188.822 27.6765 189.952 26.8178 190.766 25.6442C192.47 25.0615 194.66 24.964 196.285 24.3024Z" fill="#999999"/>
<path fill-rule="evenodd" clip-rule="evenodd" d="M159.892 30.8626C159.693 30.669 159.337 30.666 159.295 31.0117C159.989 31.8583 160.415 32.9733 160.19 34.7391C159.092 34.9335 159.732 36.8654 158.4 36.8265C158.283 37.8874 158.548 38.5671 159.295 38.7647C160.622 38.2031 160.591 36.2827 161.98 35.7827C163.851 37.1027 164.886 40.8159 164.366 43.5357C163.619 43.6461 164.565 42.9862 164.068 42.9393C162.975 44.4313 162.408 46.4488 161.681 48.3067C157.547 49.0325 153.46 49.0021 149.003 49.4995C149.857 47.4792 150.651 46.2162 150.495 44.132C150.361 42.3364 148.832 41.0418 148.705 39.5101C148.691 39.3419 148.794 38.0109 148.854 37.2737C148.935 36.2849 149.955 35.1452 149.153 34.1426C149.837 33.8017 149.886 33.4114 149.898 32.6516C150.765 32.4737 151.026 31.6912 151.39 31.0115C151.726 31.5518 151.044 32.3506 151.241 33.2479C152.544 33.2836 152.344 31.6221 152.136 30.5642C152.414 29.9979 153.533 30.2712 153.776 29.6695C153.388 29.511 152.978 29.3738 152.881 28.9239C154.342 26.3671 156.913 29.5577 159.146 29.3713C159.172 30.0911 159.866 30.1431 159.892 30.8626Z" fill="#999999"/>
<path fill-rule="evenodd" clip-rule="evenodd" d="M110.075 29.5207C110.199 30.4406 109.263 30.3001 109.03 30.8626C109.286 31.7006 109.972 32.1077 110.522 32.6518C110.522 35.6338 110.522 38.6156 110.522 41.5974C110.722 42.3443 109.658 41.827 109.925 42.6412C109.859 43.3537 110.053 43.8053 110.522 43.9831C110.276 45.3665 109.739 46.6941 110.373 47.4124C109.304 45.9792 106.785 44.6456 104.705 45.9214C103.968 45.5155 103.247 45.0923 102.617 44.5795C95.3926 44.4456 88.6045 43.8757 81.5863 43.5359C81.686 38.119 82.4163 33.3325 82.7795 28.1791C91.6737 28.8303 100.826 29.2241 110.075 29.5207Z" fill="#999999"/>
<path fill-rule="evenodd" clip-rule="evenodd" d="M81.8849 33.099C81.538 40.2567 80.8514 47.0748 80.2441 53.9722C70.6669 53.4072 62.0472 51.8852 52.9491 50.8412C54.0133 43.8538 55.1641 36.9531 56.2306 29.9679C64.5033 31.2902 73.0917 32.297 81.8849 33.099Z" fill="#999999"/>
<path fill-rule="evenodd" clip-rule="evenodd" d="M209.41 33.9937C209.025 34.5001 208.542 35.4709 209.112 36.081C209.568 36.1891 209.55 35.8237 210.007 35.9319C210.99 36.7295 211.018 38.1526 212.393 38.1683C213.106 38.1765 213.247 37.0858 213.885 37.7209C213.273 38.4516 211.846 38.3667 211.498 39.361C211.277 39.2343 211.178 38.9858 211.2 38.6156C210.273 38.7054 210.267 39.5572 210.007 39.9575C209.087 39.3864 208.599 38.3824 207.919 37.5719C205.177 38.1117 202.619 38.8339 199.865 39.361C199.865 38.1683 199.865 36.9755 199.865 35.7827C202.622 35.5073 204.87 34.7231 207.471 34.2918C207.506 33.3204 209.141 32.1105 209.41 33.9937Z" fill="#999999"/>
<path fill-rule="evenodd" clip-rule="evenodd" d="M3.2815 34.1426C8.57082 35.5149 13.5889 37.1585 18.9426 38.4665C18.1921 42.2528 16.9921 45.9582 15.9594 49.7976C15.5889 51.1753 15.0217 53.0751 15.2136 54.1214C15.3478 54.8537 16.5873 56.3799 17.3018 57.4015C22.2403 64.4635 27.528 72.808 32.217 79.6167C32.1369 81.0659 32.9672 82.5536 33.5594 83.7913C32.3885 84.5094 31.2736 85.2835 31.3221 87.2204C30.9408 87.4854 30.6704 87.8612 30.1289 87.9659C30.1207 88.6534 30.195 89.4234 29.9797 89.9042C29.9098 90.4215 30.7891 89.9896 30.8746 90.3514C30.532 92.2314 27.8358 91.3445 25.6542 91.0969C23.3604 90.8366 20.8757 90.3711 19.0916 90.2024C19.1135 86.3038 17.9031 83.6375 14.9152 82.7476C15.4965 82.4794 15.0657 81.5383 14.9152 81.1075C12.7346 81.1934 12.18 79.308 11.0372 77.9766C9.34039 78.0328 9.07263 76.6605 7.15921 76.933C7.18442 76.5597 6.93008 76.4662 6.7117 76.3365C7.00109 75.433 7.09402 74.3332 7.45755 73.5038C7.27915 72.106 6.10323 71.1095 5.51848 69.7764C5.24445 69.1518 5.30233 68.3336 5.07096 67.6891C4.79395 66.9172 3.8946 66.2041 3.87774 65.4527C3.84731 64.1064 6.67903 62.4421 3.87774 62.0236C3.12741 61.1489 2.61262 58.3027 3.87774 57.5506C3.499 58.3364 3.8591 59.2462 4.62345 59.3398C5.02606 58.5358 4.51739 57.3615 4.17594 56.8052C4.9021 56.606 4.97564 56.2712 4.62345 55.6124C3.63519 55.4429 3.78093 56.7827 3.72857 57.1034C3.003 56.8347 2.76895 56.0747 2.23701 55.6124C2.99107 52.4866 -0.486712 51.2869 0.74589 47.7103C0.861647 47.3744 1.28649 47.1749 1.34258 46.8158C1.63167 44.9656 0.817045 44.0286 0.000183105 42.4919C1.1309 39.7459 3.55881 38.2965 3.2815 34.1426Z" fill="#009EFF"/>
<path fill-rule="evenodd" clip-rule="evenodd" d="M207.62 37.87C208.283 38.5993 208.997 39.2767 209.41 40.2555C208.424 40.311 208.356 41.3968 207.173 41.5974C207.303 40.1258 206.775 39.3118 206.576 38.1682C206.966 38.1102 207.395 38.0917 207.62 37.87Z" fill="#999999"/>
<path fill-rule="evenodd" clip-rule="evenodd" d="M206.278 38.3173C206.548 39.3897 206.991 40.288 206.875 41.7465C205.687 42.5526 204.112 42.4206 203.146 42.9393C201.968 43.571 201.584 44.8682 200.312 44.8776C201.118 43.3131 200.208 41.3211 200.163 39.6592C202.191 39.2014 204.156 38.6803 206.278 38.3173Z" fill="#999999"/>
<path fill-rule="evenodd" clip-rule="evenodd" d="M41.7627 43.6847C39.719 53.8436 38.0528 64.5173 35.6474 74.5473C34.7919 74.3331 34.3316 73.1845 33.261 73.6527C32.2788 74.7583 32.9944 77.561 32.5153 79.1692C32.2335 79.5802 31.7563 78.5636 31.4711 78.1256C26.9789 71.2204 22.5059 64.1869 17.5999 57.1032C16.8383 56.0035 15.6477 54.783 15.5118 53.9722C15.3495 53.0037 15.9204 51.1952 16.2575 49.9465C17.2033 46.4446 18.5149 42.1707 19.2407 38.6154C26.4934 40.5597 34.2746 41.9758 41.7627 43.6847Z" fill="#999999"/>
<path fill-rule="evenodd" clip-rule="evenodd" d="M195.688 43.9829C195.289 45.4912 194.586 46.9661 194.793 48.754C195.861 49.0783 196.198 50.1327 197.18 50.5432C196.494 51.1006 196.014 51.8625 195.539 52.6306C195.189 52.6782 194.979 52.8662 194.495 52.7797C194.055 52.9858 193.891 53.4683 193.451 53.6744C187.297 54.8286 181.247 56.0868 174.956 57.1036C174.891 55.4448 174.219 52.8846 173.912 51.1398C173.583 49.2756 172.985 46.3714 173.166 45.6233C173.433 44.5205 174.923 44.3034 175.553 43.5359C175.553 43.9832 175.553 44.4306 175.553 44.8778C181.523 44.1362 186.985 42.8876 192.407 41.5976C193.216 41.4346 192.834 42.4629 193.749 42.194C194.018 42.87 194.374 43.4576 194.793 43.9831C195.092 43.9829 195.39 43.9829 195.688 43.9829Z" fill="#999999"/>
<path fill-rule="evenodd" clip-rule="evenodd" d="M130.658 41.8956C131.621 43.1864 130.079 46.4076 132.895 46.3684C132.872 47.7595 134.927 48.3503 135.132 49.4995C135.311 50.4972 134.436 51.1123 134.088 52.1833C133.211 52.4491 131.844 52.2263 131.702 53.227C131.463 54.1116 132.176 54.0454 132.298 54.5689C132.16 55.7726 131.751 56.7056 130.807 57.1035C130.807 57.4514 130.807 57.7993 130.807 58.1472C130.094 58.1141 130.167 57.2958 129.614 57.1035C124.345 57.4033 119.04 57.6662 113.356 57.5509C113.039 53.0472 111.476 49.7888 110.224 46.2198C110.705 45.7566 110.691 44.7977 110.82 43.9832C110.484 43.5739 110.026 43.2863 110.224 42.3431C117.194 42.3522 124.022 42.2204 130.658 41.8956Z" fill="#999999"/>
<path fill-rule="evenodd" clip-rule="evenodd" d="M42.0611 43.6847C45.6515 44.5188 49.4952 45.0998 53.3967 45.623C53.0554 47.3193 52.8984 49.2001 52.6509 50.9904C55.1497 51.4247 57.6838 51.8239 60.4069 52.0341C59.4856 59.0153 58.5217 65.9537 57.5729 72.9073C50.4288 72.1466 43.9017 70.7692 37.139 69.6273C38.7628 60.9628 40.4688 52.3805 42.0611 43.6847Z" fill="#999999"/>
<path fill-rule="evenodd" clip-rule="evenodd" d="M114.698 60.6815C105.543 60.7881 96.9261 60.3567 88.1492 60.085C88.0392 58.0866 88.4696 56.6281 88.4475 54.7175C85.8336 54.4978 83.4049 54.0926 80.5425 54.1211C80.885 50.7361 81.1687 47.2923 81.4375 43.8336C85.8433 44.0379 94.3789 44.6035 100.231 44.8773C102.493 44.9831 103.226 45.1021 104.556 46.2191C105.248 45.8171 106.328 45.8033 107.241 45.6227C107.697 46.1605 108.634 46.2178 109.18 46.6663C109.819 46.8721 109.539 47.997 110.672 47.71C110.894 49.0146 111.222 50.6344 111.716 51.8847C111.885 52.3137 112.331 52.6294 112.462 53.0775C112.834 54.353 112.63 55.8179 112.909 57.1031C113.216 58.5195 114.268 59.6797 114.698 60.6815Z" fill="#999999"/>
<path fill-rule="evenodd" clip-rule="evenodd" d="M199.417 45.4739C199.644 46.9431 198.605 47.1473 198.821 48.6048C199.39 48.738 199.773 48.3615 200.014 48.6048C200.958 52.4037 199.141 54.5291 198.075 57.1033C197.619 56.8275 198.247 56.395 198.075 55.9105C196.582 55.7126 195.423 55.1821 194.793 54.1213C195.455 52.7454 196.569 51.8208 197.478 50.6921C196.793 49.8362 196.031 49.0574 195.092 48.4557C194.777 47.6264 195.846 47.2294 195.092 46.3683C195.792 46.1236 195.512 44.9 195.987 44.4301C197.121 44.7869 198.23 45.1697 199.417 45.4739Z" fill="#999999"/>
<path fill-rule="evenodd" clip-rule="evenodd" d="M170.332 62.3216C169.85 62.307 170.014 61.6458 169.288 61.8743C168.716 62.7935 168.841 64.4095 168.244 65.3034C167.131 65.2229 166.512 64.6498 166.156 63.8124C164.996 64.3604 164.167 64.3164 162.875 64.7071C162.381 64.256 161.76 63.9332 160.637 64.1107C160.647 62.6814 159.393 62.6947 158.102 62.9179C157.655 58.3446 157.123 53.8576 156.61 49.3502C159.889 48.7289 163.052 48.1148 165.559 49.7976C168.698 49.2072 170.066 46.8477 172.57 45.623C173.133 46.6936 174.159 51.9272 173.763 53.5249C173.161 55.9527 173.867 58.4904 172.122 59.4887C170.744 59.1242 169.88 60.8564 170.332 62.3216Z" fill="#999999"/>
<path fill-rule="evenodd" clip-rule="evenodd" d="M144.231 46.3684C144.358 48.2633 145.576 49.3226 145.722 52.0341C145.903 55.3823 146.77 59.8475 146.617 62.7689C146.597 63.148 146.428 63.6025 146.468 63.9617C146.551 64.717 147.133 65.3371 147.064 66.0491C146.963 67.1007 145.964 68.1685 145.424 68.7329C145.908 70.5085 144.337 71.9352 145.275 72.7585C144.771 73.0497 144.051 73.1252 143.634 73.5039C143.254 74.4556 144.073 74.4086 143.783 75.1439C143.11 75.0717 142.768 74.6676 142.142 74.5476C141.401 74.7014 141.171 75.366 140.651 75.7403C139.457 74.6351 140.126 72.9321 138.861 71.5657C137.18 71.457 136.47 70.3772 135.729 69.3292C136.18 68.4388 136.567 67.4838 136.624 66.1983C136.257 65.6707 135.31 65.7221 134.387 65.7509C133.924 62.7837 130.652 62.6259 130.509 59.3398C130.677 58.6134 131.314 58.3555 131.105 57.2525C131.282 57.0809 131.632 57.0837 132 57.1034C132.173 55.6785 133.146 54.4997 132 53.376C132.175 53.352 132.126 53.1042 132.149 52.9287C134.144 52.8797 135.814 51.207 135.431 49.3504C135.293 48.685 134.664 48.6789 134.237 48.1576C133.887 47.7292 134.236 46.9313 133.492 47.114C136.949 46.7434 140.673 46.6389 144.231 46.3684Z" fill="#999999"/>
<path fill-rule="evenodd" clip-rule="evenodd" d="M156.312 49.2013C156.939 54.2403 157.299 59.5456 158.102 64.4089C157.331 64.5823 157.152 65.3479 156.014 65.1545C155.898 67.0764 153.87 67.0867 153.926 69.1801C153.483 69.0754 152.52 69.4916 152.732 68.7328C152.057 69.0018 151.157 69.046 151.39 70.2237C150.924 70.6453 150.9 69.7217 150.495 69.6273C149.776 69.753 149.43 70.2525 149.153 70.82C148.615 69.7786 146.804 70.3872 145.871 70.6709C144.958 68.6953 147.138 68.0142 147.363 66.1981C147.467 65.3559 146.867 64.8069 146.766 63.9617C146.615 62.6913 146.704 61.1417 146.617 59.638C146.444 56.6537 146.229 53.4231 146.021 50.5432C146.987 51.1589 147.678 49.998 148.556 49.7976C150.88 49.2674 153.691 49.6014 156.312 49.2013Z" fill="#999999"/>
<path fill-rule="evenodd" clip-rule="evenodd" d="M88.1492 54.8668C87.6905 61.8133 87.2542 68.7822 86.956 75.8891C76.7946 75.4112 67.2293 74.3373 57.8712 73.0563C58.9171 66.1502 59.6063 58.8874 60.8543 52.1831C69.6396 53.3906 78.6506 54.3724 88.1492 54.8668Z" fill="#999999"/>
<path fill-rule="evenodd" clip-rule="evenodd" d="M198.075 59.4888C197.458 59.8662 196.404 59.8066 195.539 59.9362C195.089 57.8519 194.532 55.8736 193.899 53.9724C194.117 53.7134 193.879 53.1068 194.495 53.0778C195.081 53.0504 194.423 54.0219 194.495 54.2706C194.684 54.92 195.104 54.9404 195.688 55.7616C196.271 56.5792 196.32 58.1167 197.628 58.1471C197.722 58.6486 197.733 59.234 198.075 59.4888Z" fill="#999999"/>
<path fill-rule="evenodd" clip-rule="evenodd" d="M174.061 53.9724C174.183 54.5986 174.707 56.1084 174.658 57.4015C176.251 57.3541 177.345 56.8074 178.983 56.8051C179.059 57.6736 179.141 58.536 179.431 59.1906C180.351 58.4704 181.312 57.7908 182.115 56.9542C183.422 57.1671 183.872 56.5229 184.353 55.9105C185.186 56.4612 186.734 56.7805 186.142 58.296C185.399 57.8468 184.788 57.2648 183.756 57.1033C183.802 58.9879 182.814 59.8397 182.265 61.1289C181.966 61.1289 181.668 61.1289 181.37 61.1289C181.336 61.9894 181.179 62.7269 180.773 63.2162C179.921 63.3719 180.309 62.2884 179.431 62.4708C179.011 64.6924 177.466 67.0151 177.492 68.7328C176.758 68.9389 176.135 69.7281 175.404 69.4782C175.083 69.9035 174.888 70.4543 174.36 70.671C173.492 70.179 173.119 70.5885 172.57 71.1183C170.168 70.3882 169.119 68.3053 167.648 66.6455C167.648 66.2976 167.648 65.9496 167.648 65.6017C168.165 65.7213 168.221 65.3797 168.692 65.4526C169.015 64.4343 169.156 63.2332 169.437 62.1724C170.005 61.9532 169.467 62.8389 170.034 62.6197C170.302 62.6387 170.349 62.4372 170.631 62.4706C170.174 61.0697 170.9 60.4877 171.376 59.6378C173.764 59.8303 173.912 56.5128 174.061 53.9724Z" fill="#999999"/>
<path fill-rule="evenodd" clip-rule="evenodd" d="M193.6 53.9724C194.054 55.9712 195.094 58.1201 195.092 60.0853C195.963 60.4651 197.146 59.9843 198.075 59.9361C198.188 60.7455 197.838 61.0916 197.925 61.8745C197.355 62.2486 196.301 62.1393 195.986 62.769C195.396 62.6142 195.435 61.8293 195.092 61.4271C194.586 61.469 194.235 61.6644 193.6 61.5762C193.181 61.1261 192.643 60.0477 193.451 59.6381C193.384 59.1156 192.809 59.333 192.705 59.1907C193.197 58.6982 193.401 57.271 192.407 57.1034C192.569 56.4707 192.901 56.0072 193.152 55.4633C192.446 55.3068 191.749 56.4435 191.512 57.2526C191.661 57.4518 191.915 57.5453 191.959 57.849C190.914 59.8732 193.022 60.951 192.854 62.4709C191.748 62.1852 190.347 62.1936 189.275 61.8745C189.011 60.7457 190.303 60.0711 190.319 58.7434C190.29 58.6226 190.169 58.5947 190.17 58.4452C188.946 58.7485 188.855 58.5127 187.634 58.296C187.386 57.9998 187.647 58.1065 187.634 57.6996C186.295 57.1993 185.905 55.7498 184.054 55.7613C183.626 56.1323 183.012 57.0997 182.115 56.5068C181.55 57.5323 180.101 57.6736 179.729 58.8924C179.407 58.3193 179.355 57.4767 179.281 56.6559C184.11 55.8178 188.826 54.8654 193.6 53.9724Z" fill="#999999"/>
<path fill-rule="evenodd" clip-rule="evenodd" d="M129.614 57.4015C129.799 57.8624 130.106 58.2015 130.509 58.4453C129.728 61.2948 132.195 63.2604 133.939 64.5582C133.91 65.1342 133.934 65.6568 134.088 66.0492C135.071 65.9612 135.874 66.0529 136.325 66.4965C136.407 67.657 135.336 68.3555 135.431 69.3292C135.551 70.5695 137.281 71.6102 138.712 71.8638C139.426 73.168 139.531 74.2399 139.905 75.7403C140.145 76.0467 140.653 76.0861 141.247 76.0385C141.266 76.6535 140.988 76.9721 141.098 77.6785C139.977 77.3033 140.684 78.7549 139.607 78.4241C139.775 79.7352 139.314 80.4176 139.01 81.2568C138.168 81.2105 137.684 81.5211 136.773 81.4059C136.956 80.4545 138.254 79.8505 137.369 78.7221C130.955 78.8704 124.915 79.3933 118.278 79.3186C118.258 74.6171 118.362 69.792 118.129 65.3037C117.235 64.9551 116.759 64.1882 116.339 63.3654C116.175 62.5052 117.144 62.7781 116.936 61.8744C116.789 60.9443 116.008 61.5552 115.444 61.1289C114.94 59.9934 113.874 59.4187 113.803 57.8488C119.326 57.9517 124.512 57.719 129.614 57.4015Z" fill="#999999"/>
<path fill-rule="evenodd" clip-rule="evenodd" d="M183.905 57.4015C184.756 57.7442 185.411 58.2816 186.292 58.5942C186.661 58.4171 186.295 57.5038 186.888 57.5506C187.131 58.8483 188.901 58.62 189.573 59.4889C189.606 60.5039 188.585 60.9628 189.126 62.0236C190.694 62.5927 192.452 62.9727 193.899 63.6636C193.761 64.9509 193.94 65.2869 194.346 66.1983C194.378 66.8885 193.814 66.0517 193.6 66.4965C193.615 67.4104 195.004 67.6299 194.644 68.4347C193.671 68.215 193.631 67.0616 192.407 67.0928C192.811 68.1797 193.811 68.6715 194.495 69.4783C195.036 69.6212 194.647 68.8349 194.943 68.7329C195.427 68.8194 195.636 68.6314 195.987 68.5838C196.248 69.1175 196.436 69.7252 196.882 70.0748C187.029 72.7351 175.981 73.995 165.261 75.4421C166.07 75.058 166.634 74.4289 167.498 74.1002C167.743 72.0592 169.742 71.7703 170.482 70.2239C171.052 70.939 171.535 71.4873 172.57 71.4166C173.025 71.3855 172.997 70.8227 173.464 70.6711C173.753 70.5776 175.775 71.2951 175.404 69.9257C176.151 69.9853 176.837 69.2056 177.79 69.0311C177.648 66.6413 179.495 65.5141 179.431 62.7691C180.149 62.8464 179.96 63.8298 181.071 63.5147C181.426 62.9747 181.512 62.1657 181.668 61.4272C181.917 61.4272 182.165 61.4272 182.414 61.4272C182.885 60.0593 184.261 59.5958 183.905 57.4015Z" fill="#999999"/>
<path fill-rule="evenodd" clip-rule="evenodd" d="M189.424 58.7433C189.623 58.7433 189.822 58.7433 190.021 58.7433C190.021 58.9421 190.021 59.141 190.021 59.3398C189.641 59.3215 189.442 59.1227 189.424 58.7433Z" fill="#999999"/>
<path fill-rule="evenodd" clip-rule="evenodd" d="M116.637 61.7252C116.479 62.5942 115.95 62.7184 116.041 63.5144C116.145 64.4337 117.346 65.0561 117.831 65.6017C118.027 69.1324 117.983 72.9041 117.98 76.6347C107.698 77.0356 97.2332 76.4275 87.2543 76.0384C87.4109 70.6786 87.8101 65.561 88.1492 60.3835C96.9212 60.6599 105.541 61.0886 114.698 60.9799C115.408 61.1648 115.565 61.9024 116.637 61.7252Z" fill="#999999"/>
<path fill-rule="evenodd" clip-rule="evenodd" d="M195.837 67.3908C194.977 65.5438 196.108 64.3216 196.434 62.6197C196.924 62.7993 197.556 61.9105 197.627 62.6197C196.043 63.2226 197.387 66.7535 195.837 67.3908Z" fill="#999999"/>
<path fill-rule="evenodd" clip-rule="evenodd" d="M160.488 64.4089C161.61 64.2314 162.232 64.5541 162.726 65.0053C163.221 65.0529 163.289 64.6741 163.621 64.558C163.885 64.7411 164.407 64.6667 164.515 65.0053C165.263 64.9578 165.145 64.044 166.007 64.1108C166.137 64.8256 166.589 65.2187 167.349 65.3036C167.349 65.8502 167.349 66.397 167.349 66.9436C168.565 67.717 168.804 69.4653 170.332 69.9256C169.581 71.5602 167.473 71.8383 167.2 73.9511C164.263 76.4188 158.702 76.172 153.18 76.4857C150.532 76.6363 148.365 77.3491 146.021 77.0822C145.687 77.1464 145.96 77.817 145.871 78.1258C143.882 78.0253 142.492 78.5245 140.502 78.424C140.499 77.9236 141.093 78.021 141.397 77.8276C141.353 76.8546 141.772 76.0892 141.248 75.4421C141.472 75.2189 141.876 75.1753 141.993 74.8458C142.763 75.0204 143.297 75.4313 144.082 75.5912C144.605 74.9612 143.833 74.3543 143.932 73.653C144.44 73.415 145.018 73.2468 145.573 73.0566C144.93 72.0374 145.487 71.6796 146.021 70.8202C147.301 70.6691 148.358 70.2693 149.153 71.1184C149.68 70.9005 149.78 70.2549 150.197 69.9256C150.874 69.8454 150.595 70.7202 151.241 70.671C151.938 70.7219 151.518 69.6557 151.837 69.3292C152.534 69.1364 152.979 69.6709 154.075 69.4783C154.017 67.4821 156.026 67.552 156.014 65.6018C157.032 65.4765 157.603 64.9039 158.4 64.5581C158.538 63.8738 158.027 63.8378 158.102 63.2163C159.397 62.9626 160.44 63.0748 160.488 64.4089Z" fill="#999999"/>
<path fill-rule="evenodd" clip-rule="evenodd" d="M36.9899 69.9254C43.7723 71.0474 50.296 72.4284 57.4238 73.2054C56.4215 83.4353 54.6552 92.9016 53.5458 103.025C50.5243 102.516 47.3725 102.138 44.2984 101.683C39.3402 98.5381 34.0903 95.6851 29.0848 92.5878C29.2164 91.2781 31.5223 92.1419 31.1731 90.3514C31.187 89.8902 30.7226 89.9071 30.2781 89.9042C30.5427 89.6219 30.3868 88.9194 30.4272 88.4132C31.6828 87.8294 31.7434 86.0511 32.3663 84.8349C32.9372 84.6601 33.5026 84.4799 33.8579 84.0895C33.4937 82.7636 32.9229 81.6446 32.5155 80.3621C33.249 78.7099 32.8179 75.8933 33.2612 73.951C34.2515 73.5786 34.5775 74.5696 35.3494 74.8456C36.9653 74.2741 36.5498 71.6721 36.9899 69.9254Z" fill="#999999"/>
<path fill-rule="evenodd" clip-rule="evenodd" d="M196.732 70.5217C197.342 71.055 197.574 71.9664 197.925 72.7582C196.628 71.7523 194.962 73.1987 194.197 74.0999C195.136 74.3199 195.813 73.9182 196.583 73.5036C197.017 73.8444 197.339 73.8387 197.627 73.3545C198.072 73.7051 198.46 74.112 198.522 74.8455C198.061 75.5277 197.462 76.0723 197.18 76.9328C196.391 77.1037 196.074 77.0005 195.241 76.9328C195.091 77.4304 195.448 77.4216 195.837 77.3801C195.728 77.9662 195.579 78.5128 195.39 79.0201C195.946 79.1601 196.434 79.368 197.031 79.4674C196.797 79.9303 196.588 80.4165 196.285 80.8093C193.178 80.7101 191.476 83.2398 190.766 86.0275C189.794 85.95 189.203 86.2542 188.678 86.624C185.723 85.0793 183.605 81.2279 178.387 83.0457C177.875 82.6625 177.624 82.0186 177.044 81.7038C170.879 81.1569 168.534 84.4287 162.875 84.3876C162.875 84.0395 162.875 83.6917 162.875 83.3438C163.293 83.2646 163.65 83.1249 164.068 83.0457C164.068 82.6978 164.068 82.3499 164.068 82.0021C165.684 81.4805 166.638 80.2968 168.244 79.7657C168.032 78.7585 168.71 78.641 168.99 78.1256C169.427 78.0866 169.448 78.4627 169.885 78.4238C170.259 77.8609 170.601 77.1331 171.526 77.5291C172.011 77.0706 171.781 75.896 172.868 76.0383C172.868 75.5909 172.868 75.1436 172.868 74.6964C181.355 73.8372 189.128 72.2639 196.732 70.5217Z" fill="#999999"/>
<path fill-rule="evenodd" clip-rule="evenodd" d="M82.7797 75.8893C81.8892 84.4914 81.4003 93.4951 80.5425 102.13C75.0021 102.052 70.2434 101.193 65.0306 100.788C64.0714 100.868 65.1089 102.218 64.5831 102.13C62.377 101.701 59.9522 101.491 57.7221 101.086C57.3572 101.666 57.482 102.735 57.2746 103.472C56.1298 103.324 54.903 103.258 53.8441 103.025C54.9542 92.9521 56.7174 83.5326 57.7221 73.3547C65.8394 74.4346 73.9904 75.4809 82.7797 75.8893Z" fill="#999999"/>
<path fill-rule="evenodd" clip-rule="evenodd" d="M172.57 74.5474C172.837 76.0072 171.516 75.8799 171.525 77.0821C170.895 77.037 169.933 77.3136 169.736 78.1257C169.473 78.0898 169.396 77.8691 169.437 77.5292C168.774 78.0092 167.876 78.2542 167.946 79.4676C166.451 80.1599 165.3 81.1959 163.77 81.8531C163.77 82.1512 163.77 82.4494 163.77 82.7476C163.341 82.8662 162.978 83.0494 162.576 83.195C162.576 83.6422 162.576 84.0895 162.576 84.5367C154.345 85.3037 146.204 86.1614 137.668 86.6241C138.489 86.3138 137.932 85.0677 137.817 84.3877C138.122 84.2449 138.407 84.0831 138.712 83.9404C138.652 81.7436 140.066 81.0195 139.905 78.722C142.221 78.8992 143.82 78.3616 146.02 78.4239C146.354 78.3597 146.081 77.6891 146.17 77.3803C154.749 76.8086 164.703 76.3278 172.57 74.5474Z" fill="#999999"/>
<path fill-rule="evenodd" clip-rule="evenodd" d="M83.0781 76.0385C94.2631 76.7039 106.236 77.316 117.98 76.933C118.514 82.6112 119.198 88.14 118.875 94.6752C117.635 94.3239 116.645 93.7233 115.892 92.886C115.462 92.9039 115.633 93.5218 115.146 93.4825C113.983 93.0568 112.211 93.1877 111.268 94.2279C110.423 93.6808 108.669 94.043 108.434 92.886C107.876 93.1236 107.856 93.8986 107.39 94.2279C106.038 93.8389 105.244 92.323 103.96 93.4825C104.279 92.112 103.017 93.2393 103.214 91.9915C101.549 91.9781 100.6 91.8859 98.5899 91.3952C98.5365 89.1825 96.1138 91.2707 95.1594 89.4569C95.1778 85.8473 95.6002 82.6416 95.607 79.0203C91.2762 78.976 87.2144 78.6627 83.0782 78.424C83.0781 77.6287 83.0781 76.8335 83.0781 76.0385Z" fill="#999999"/>
<path fill-rule="evenodd" clip-rule="evenodd" d="M82.6306 78.722C86.8629 78.9146 90.9295 79.2727 95.3087 79.3185C95.3554 82.7978 94.6531 86.3121 95.0104 89.606C95.6864 90.5645 97.0294 91.1468 97.8443 90.5005C98.2508 90.6408 98.1858 91.2526 98.2918 91.6933C100.117 91.7835 101.432 92.7799 102.617 92.2897C103.101 92.8229 103.713 93.0691 103.661 93.7806C105.467 92.9056 105.751 94.1736 107.39 94.5261C107.96 94.5495 107.875 93.9173 108.136 93.6316C109.005 94.005 110.167 94.0862 110.97 94.5261C111.813 94.7231 111.711 93.9744 112.163 93.7806C113.725 93.3669 114.813 94.2364 115.743 93.3334C117.157 94.3016 118.988 95.6033 120.814 95.2715C120.798 98.0702 120.944 100.708 121.112 103.323C122.02 105.48 124.618 108.718 122.455 111.225C123.081 112.361 122.192 114.261 122.156 115.698C120.597 115.878 119.677 116.698 118.428 117.188C115.854 120.331 111.609 121.803 108.285 124.196C107.396 126.104 105.108 128.085 105.153 130.756C105.18 132.35 106.244 134.11 106.346 135.527C105.973 135.502 105.879 135.756 105.75 135.974C105.057 135.822 104.633 135.4 104.258 134.931C103.633 134.591 102.882 135.044 102.319 134.931C101.61 134.788 101.399 134.153 100.827 133.887C99.6503 133.339 98.2226 133.469 97.3969 132.545C97.1146 130.266 95.3981 129.16 96.0546 127.029C95.9573 126.331 95.1264 126.366 94.7122 125.985C93.7542 125.153 93.6856 123.433 92.3257 123.003C91.5684 119.387 89.6863 116.895 87.5528 114.654C86.007 114.509 84.2421 114.584 83.3765 113.759C80.6883 114.104 80.7566 117.204 78.9019 118.381C76.8414 116.628 74.0373 116.257 72.9358 113.908C72.551 113.088 72.8298 112.215 72.6375 111.225C72.0157 108.02 68.5251 107.207 67.5663 104.515C67.2696 104.315 66.8562 104.231 66.5222 104.068C66.4867 102.613 65.08 102.528 64.8815 101.235C69.9224 101.267 75.0635 102.487 80.6917 102.428C81.6213 94.8093 82.2285 86.8681 82.6306 78.722Z" fill="#999999"/>
<path fill-rule="evenodd" clip-rule="evenodd" d="M137.37 79.3185C137.398 80.44 136.367 80.5032 136.326 81.5549C137.037 81.9626 138.208 81.5516 139.01 81.5549C138.247 82.2326 138.81 84.2371 137.37 84.2386C137.416 84.8879 137.761 85.2387 137.817 85.8786C137.812 86.3702 137.393 86.4485 136.922 86.475C136.966 88.0793 135.218 88.2793 135.878 90.0533C134.836 90.1264 134.092 91.5063 134.536 92.1406C134.224 92.2263 134.11 92.5102 133.641 92.4388C133.274 94.5519 133.646 95.6834 133.939 97.5079C129.868 97.8121 125.53 97.8492 121.112 97.8062C121.112 96.9116 121.112 96.0171 121.112 95.1224C120.409 94.497 119.908 95.323 119.173 94.9733C119.15 89.6294 119.427 83.9842 118.427 79.6167C124.922 79.8923 131.585 78.7595 137.37 79.3185Z" fill="#999999"/>
<path fill-rule="evenodd" clip-rule="evenodd" d="M176.895 82.0022C177.117 82.5263 177.922 82.4664 177.79 83.3439C179.725 83.4886 181.116 82.6498 182.563 82.8967C184.887 83.2932 186.14 86.0056 188.231 86.6241C187.202 87.6825 186.095 88.6638 186.292 90.9478C185.924 91.0774 185.645 91.2952 185.695 91.8423C183.682 92.4142 183.684 95.0001 181.37 95.2715C181.716 96.7152 180.496 97.6045 179.132 97.8061C178.504 97.043 178.723 95.4327 177.343 95.4206C177.224 94.3462 176.643 93.7344 176.299 92.886C173.919 92.2333 173.601 89.5197 171.078 89.0096C170.466 88.1801 170.028 87.1773 169.438 86.3259C168.319 86.4003 167.894 85.7819 167.2 85.4314C168.656 82.5128 172.573 82.0551 176.895 82.0022Z" fill="#999999"/>
<path fill-rule="evenodd" clip-rule="evenodd" d="M167.647 84.0895C167.501 84.6389 166.841 84.6751 166.902 85.4314C167.463 86.0629 167.987 86.732 169.288 86.6242C170.276 89.5128 173.541 90.1259 174.807 92.7369C175.273 92.9173 175.738 93.0987 176.149 93.3334C176.453 94.0737 176.96 94.6099 177.044 95.5698C177.289 95.8215 177.853 95.7548 178.088 96.0171C178.179 96.6218 178.603 96.8944 178.536 97.6571C178.798 98.0404 179.3 98.1852 180.027 98.1044C178.942 99.957 178.229 102.42 178.386 105.261C177.239 105.421 176.318 104.599 175.552 105.261C175.36 106.153 176.263 106.731 175.702 107.497C175.083 107.619 175.627 106.578 175.254 106.454C171.267 106.743 167.355 107.106 163.173 107.199C161.712 105.483 161.017 101.963 161.98 99.4463C161.078 97.5521 160.141 95.5616 159.444 93.0351C158.738 90.4768 158.18 87.8224 157.505 85.2823C160.934 84.9331 164.397 84.6173 167.647 84.0895Z" fill="#999999"/>
<path fill-rule="evenodd" clip-rule="evenodd" d="M157.207 85.4314C158.26 88.9344 158.93 92.7982 160.041 96.1661C160.292 96.9277 160.897 97.5491 161.234 98.2535C161.42 98.6415 161.048 99.2392 161.681 99.2972C160.524 101.004 161.819 102.804 161.383 104.814C161.386 105.407 162.146 105.244 161.98 106.006C157.81 106.112 154.28 106.858 150.346 107.199C150.142 108.944 151.977 108.65 151.39 110.777C150.712 110.895 150.35 111.329 149.6 111.374C149.698 111.174 149.919 111.096 150.197 111.076C149.879 110.3 149.641 109.444 149.003 108.988C148.246 109.126 148.478 110.252 148.109 110.777C147.976 110.662 147.772 110.617 147.512 110.628C145.518 104.03 146.984 94.1994 146.319 86.475C149.597 85.7757 153.673 85.874 157.207 85.4314Z" fill="#999999"/>
<path fill-rule="evenodd" clip-rule="evenodd" d="M145.722 86.3259C146.751 87.4607 146.383 89.2333 146.319 90.6496C146.004 97.5831 145.993 104.723 146.915 111.076C144.933 110.954 142.764 110.471 142.142 112.119C141.562 111.457 141.369 110.408 140.651 109.883C140.563 109.05 140.993 108.733 140.949 107.945C138.469 107.808 135.243 108.199 132.447 108.243C132.208 104.792 134.742 103.765 134.834 101.086C134.322 100.355 134.034 99.4014 133.79 98.4025C133.577 97.7425 134.295 98.0125 134.237 97.5079C134.101 95.5544 133.61 94.8683 133.939 93.0351C133.974 92.5729 134.468 92.5699 134.834 92.4388C134.657 91.4945 134.89 91.401 135.132 90.6496C135.343 90.3633 135.857 90.3797 136.176 90.2024C135.558 88.4763 137.106 88.3311 137.22 86.9222C140.2 86.8692 143.013 86.6494 145.722 86.3259Z" fill="#999999"/>
<path fill-rule="evenodd" clip-rule="evenodd" d="M133.492 97.8062C133.66 99.4118 133.835 100.408 134.536 101.235C134.625 101.623 134.476 101.772 134.088 101.683C133.929 102.24 134.459 102.108 134.387 102.577C133.142 104.066 132.05 105.709 132.149 108.541C134.987 108.446 137.824 108.349 140.502 108.094C139.814 109.701 141.498 111.164 141.546 112.417C141.356 112.874 140.692 112.856 140.502 113.312C140.582 113.878 141.137 113.969 141.695 114.057C142.189 114.055 141.847 113.215 142.142 113.014C142.654 113.214 143.111 113.697 142.888 114.207C142.647 114.462 142.264 114.577 141.695 114.505C141.744 115.051 141.529 115.333 141.397 115.698C142.198 116.586 144.029 116.445 144.827 117.337C143.964 119.181 142.786 116.654 141.248 116.89C141.129 116.612 140.998 116.344 140.949 115.996C140.486 115.98 140.524 116.465 139.905 116.294C140.062 117.164 139.838 117.402 139.607 118.083C138.951 118.142 139.218 117.279 138.712 117.188C137.935 117.505 137.318 117.982 136.773 118.53C135.689 118.471 135.173 117.844 134.237 117.636C134.157 117.108 134.766 117.269 134.685 116.741C134.498 116.182 133.69 116.244 133.044 116.145C133.132 115.61 132.871 115.423 132.746 115.101C131.511 115.289 131.087 114.565 130.061 115.25C130.184 115.625 130.257 116.049 130.807 115.996C128.333 117.165 125.533 114.002 122.604 115.548C122.907 113.939 122.633 111.016 123.648 109.883C124.202 107.72 122.858 106.726 122.305 105.559C121.959 104.828 122.315 103.883 121.41 103.472C121.166 101.827 121.387 99.7176 121.112 98.1044C125.332 98.0981 129.656 98.1961 133.492 97.8062Z" fill="#999999"/>
<path fill-rule="evenodd" clip-rule="evenodd" d="M24.6102 104.217C24.9552 104.544 25.1044 103.835 25.8034 104.068C25.8288 105.236 26.6635 105.594 28.0407 105.41C29.1508 106.318 30.2812 106.365 31.6203 106.901C32.1775 107.06 32.0455 106.531 32.5154 106.603C33.2945 106.768 33.637 107.37 34.4543 107.497C34.4543 114.405 34.4543 121.313 34.4543 128.221C34.9592 128.912 35.862 128.25 36.5425 128.221C36.6713 129.733 38.3357 129.709 38.4815 131.203C39.0115 131.186 39.0237 130.652 39.6747 130.756C39.5418 129.728 40.1389 129.431 40.8679 129.265C42.462 131.399 44.3703 133.219 45.6408 135.676C46.3692 135.942 47.1388 136.166 47.8781 136.422C48.4175 137.399 48.3582 138.725 47.7289 139.552C47.2999 138.838 46.6956 138.299 45.79 138.062C45.4894 138.42 46.1724 139.064 45.9391 139.851C45.4891 139.298 45.3484 139.807 44.8949 140C44.2936 139.06 44.1366 137.677 43.4034 136.869C42.9208 136.685 43.2894 137.351 42.8067 137.167C42.1041 137.236 41.8891 136.261 41.4643 135.676C41.0405 135.093 39.7869 133.639 39.9727 132.843C38.5934 132.035 37.8411 130.601 36.0947 130.16C35.766 129.845 36.2861 129.719 36.2439 129.265C34.2279 129.486 31.4307 128.457 29.3829 127.774C29.1847 127.177 28.9973 126.569 28.4879 126.283C27.671 126.162 27.5941 126.781 26.8472 126.73C26.8472 127.327 26.8472 127.923 26.8472 128.52C26.544 127.953 25.9139 128.586 25.5048 128.072C24.4873 128.498 23.9568 130.201 22.3725 129.563C22.4169 128.962 23.4453 129.343 23.4165 128.669C23.3946 128.336 23.0408 128.862 22.6707 128.669C22.6487 127.798 23.9158 127.433 23.4165 126.581C24.1947 126.076 24.3746 126.062 25.3556 126.283C25.5151 125.726 24.9852 125.858 25.0573 125.389C22.6535 125.222 22.2675 127.073 21.3284 128.37C20.4423 128.33 19.9119 128.644 19.6877 129.265C19.583 129.817 20.3252 129.522 20.4334 129.861C19.9129 131.925 17.2529 131.851 16.108 133.291C15.0037 133.379 14.0269 133.596 13.2741 134.036C13.6771 134.472 13.6925 134.325 13.4232 134.931C11.8285 134.05 10.6263 135.831 9.24689 134.931C8.53639 135.69 7.49473 135.198 6.86045 135.974C6.10639 135.499 5.19257 135.866 4.62303 135.825C4.43702 135.192 5.11918 135.427 5.21972 135.08C7.30752 135.596 8.01489 134.447 9.54524 134.036C10.0145 133.965 10.1283 134.248 10.4401 134.334C11.2088 133.806 12.3731 133.061 13.4232 133.291C13.6531 132.626 14.0877 132.165 14.9148 132.098C15.2755 131.017 15.8283 130.129 16.4064 129.265C16.1176 128.89 15.4978 129.44 15.064 129.414C15.0859 129.044 15.0919 128.69 14.7656 128.669C13.985 128.435 14.6705 129.667 14.0198 129.563C14.1394 129.046 13.7977 128.99 13.8706 128.52C13.313 128.453 13.2239 128.373 12.8264 127.923C12.0173 127.76 11.8347 128.224 11.1857 128.221C11.5414 127.813 11.4815 127.321 11.3348 126.73C11.4676 126.615 11.6717 126.57 11.9315 126.581C11.858 126.058 11.7091 125.611 11.7824 124.941C11.4827 124.866 10.2119 125.354 9.54509 124.941C9.64444 124.047 9.19498 123.701 8.9484 123.152C9.18424 122.742 9.48557 122.397 9.69426 121.959C9.67979 121.403 9.11204 121.949 9.09757 121.661C8.57726 119.471 11.0144 119.027 11.9315 117.785C12.5722 117.641 12.1932 118.517 12.6774 118.53C13.3231 118.579 13.665 118.325 13.8706 117.934C15.6352 119.136 15.7985 116.599 16.257 115.548C14.738 115.186 12.3228 115.477 11.1858 114.057C11.1769 113.502 11.3362 113.114 11.4842 112.716C11.3944 112.06 10.5375 112.171 10.5891 111.374C12.2818 111.341 13.1245 110.613 14.7655 110.926C14.7631 111.371 14.3776 111.433 14.318 111.821C14.8492 112.359 15.8764 112.941 16.8536 112.566C16.8021 111.781 15.8401 111.251 16.2569 110.479C16.1371 110.102 15.6429 110.099 15.362 109.883C15.8303 108.4 14.669 107.311 14.0196 106.454C14.6481 105.374 15.6249 106.257 16.5552 106.006C17.313 105.802 17.677 104.096 18.9417 103.919C19.064 103.902 19.2784 104.157 19.5384 104.068C20.4283 103.765 20.7647 103.162 22.2232 103.472C23.0497 102.341 24.6033 103.059 24.6102 104.217Z" fill="#999999"/>
<path fill-rule="evenodd" clip-rule="evenodd" d="M178.536 105.559C179.445 110.166 181.844 113.285 184.353 116.294C184.731 116.658 184.038 116.612 184.204 117.188C185.859 121.249 189.1 123.724 188.678 129.861C188.256 130.33 187.529 131.586 188.231 132.247C187.755 133.542 185.576 133.825 184.502 134.036C184.232 132.218 183.498 130.071 181.37 130.607C180.316 129.772 180.402 127.797 178.983 127.327C178.668 126.847 179.07 125.649 178.536 125.389C177.849 125.249 178.25 126.196 177.939 126.432C177.347 126.019 176.823 124.873 176.299 124.196C176.137 123.987 175.269 123.305 175.255 123.152C175.175 122.33 176.6 122.045 176.448 120.916C176.33 120.418 175.246 120.324 174.807 120.618C175.184 121.142 175.558 121.187 175.255 122.109C173.847 120.703 174.788 118.524 174.658 116.145C174.382 115.476 173.79 115.124 173.614 114.356C172.968 114.355 172.667 114.01 171.973 114.057C170.432 112.499 168.931 109.539 165.858 110.479C165.084 111.892 163.604 112.6 161.831 113.014C160.395 109.996 155.205 109.215 151.688 110.777C152.236 108.739 150.773 108.711 150.644 107.348C154.721 107.298 157.891 106.342 161.98 106.305C162.487 106.494 162.668 107.009 162.875 107.497C167.113 107.41 171.124 107.096 175.105 106.752C174.99 107.513 175.165 107.984 176 107.795C176.615 107.073 175.634 105.885 176 105.41C176.628 105.137 177.501 105.757 178.536 105.559Z" fill="#999999"/>
<path fill-rule="evenodd" clip-rule="evenodd" d="M57.4238 121.512C57.4878 122.222 57.2464 122.627 56.9763 123.003C56.1569 123.027 55.7457 122.643 55.1864 122.407C55.1646 121.409 56.5337 121.113 57.4238 121.512Z" fill="#999999"/>
<path fill-rule="evenodd" clip-rule="evenodd" d="M53.6949 122.556C53.4826 122.94 53.3455 123.399 52.8 123.45C53.0175 123.071 53.0839 122.542 53.6949 122.556Z" fill="#999999"/>
<path fill-rule="evenodd" clip-rule="evenodd" d="M63.9864 124.047C64.6485 124.677 64.9475 125.671 65.6271 126.283C64.6728 126.457 64.3159 125.699 63.5389 126.134C63.3003 125.627 62.8443 125.338 62.7932 124.643C63.2742 124.528 63.6746 124.332 63.9864 124.047Z" fill="#999999"/>
<path fill-rule="evenodd" clip-rule="evenodd" d="M67.7153 126.73C68.7953 126.901 69.2337 126.796 70.4 126.88C69.9534 127.928 68.6563 127.146 67.5661 127.178C67.5387 127.051 67.6243 127.037 67.7153 127.029C67.7153 126.929 67.7153 126.83 67.7153 126.73Z" fill="#999999"/>
<path fill-rule="evenodd" clip-rule="evenodd" d="M70.6984 127.625C71.6409 128.224 73.2941 128.112 73.9797 128.967C73.0862 130.897 70.2673 129.15 70.6984 127.625Z" fill="#999999"/>
<path fill-rule="evenodd" clip-rule="evenodd" d="M68.7592 128.371C69.091 127.953 69.8867 128.327 69.9525 128.669C69.8494 128.963 69.5546 129.066 69.2067 129.116C69.0321 128.893 69.0213 128.506 68.7592 128.371Z" fill="#999999"/>
<path fill-rule="evenodd" clip-rule="evenodd" d="M74.7256 131.651C75.8454 132.171 76.9121 132.745 78.1561 133.142C78.7325 133.907 78.7635 135.218 79.946 135.378C79.0383 137.213 76.3709 136.446 75.7696 138.658C75.3067 138.425 74.7915 138.244 74.5764 137.764C74.8919 136.375 74.3537 135.294 73.8307 134.334C74.1453 133.854 74.5431 133.456 75.0239 133.142C75.1073 132.483 74.2376 132.247 74.7256 131.651Z" fill="#999999"/>
<path d="M21 71C18.2433 71 16 73.2024 16 75.9102C16 79.7577 20.53 83.7303 20.7228 83.8971C20.8022 83.9659 20.9011 84 21 84C21.0989 84 21.1978 83.9659 21.2772 83.8976C21.47 83.7303 26 79.7577 26 75.9102C26 73.2024 23.7567 71 21 71ZM21 78.5833C19.4683 78.5833 18.2222 77.3684 18.2222 75.875C18.2222 74.3816 19.4683 73.1667 21 73.1667C22.5317 73.1667 23.7778 74.3816 23.7778 75.875C23.7778 77.3684 22.5317 78.5833 21 78.5833Z" fill="white"/>
</g>
<defs>
<clipPath id="clip0_389_5807">
<rect width="220" height="140" fill="white"/>
</clipPath>
</defs>
</svg>
