<svg width="64" height="64" viewBox="0 0 64 64" fill="none" xmlns="http://www.w3.org/2000/svg">
<path d="M29.6462 12.6277H21.4772C16.1276 12.6277 11.7909 16.9644 11.7909 22.3139V22.3139C11.7909 27.6635 16.1276 32.0002 21.4772 32.0002H42.3128C47.6624 32.0002 51.999 36.3369 51.999 41.6864V41.6864C51.999 47.036 47.6623 51.3727 42.3128 51.3727H32.3285M29.0501 51.3727H22.7913M33.5206 12.6277H40.3755" stroke="#999999" stroke-width="0.941176" stroke-linecap="round"/>
<path d="M29.051 51.3727H22.7922M33.5216 12.6277H40.3765" stroke="#009EFF" stroke-width="0.941176" stroke-linecap="round"/>
<circle cx="6.70586" cy="6.70586" r="6.23527" transform="matrix(-1 0 0 1 56.4707 5.17651)" fill="#F5F5F5" stroke="#009EFF" stroke-width="0.941176"/>
<circle cx="6.70586" cy="6.70586" r="6.23527" transform="matrix(-1 0 0 1 20.7062 45.4114)" fill="#F5F5F5" stroke="#009EFF" stroke-width="0.941176"/>
</svg>
