<svg width="63" height="49" viewBox="0 0 63 49" fill="none" xmlns="http://www.w3.org/2000/svg">
<path d="M31.4998 26.2397C28.714 26.2397 26.4598 28.4977 26.4598 31.2798C26.4598 34.0618 28.714 36.3198 31.4998 36.3198C34.2857 36.3198 36.5398 34.0618 36.5398 31.2798C36.5398 28.4964 34.2857 26.2397 31.4998 26.2397Z" stroke="#009EFF" stroke-width="1.52381" stroke-miterlimit="10" stroke-linecap="round" stroke-linejoin="round"/>
<path d="M56.648 48.0857C58.3573 45.5304 59.6881 42.701 60.5598 39.6764C61.328 37.0111 61.7397 34.1943 61.7397 31.2798C61.7397 30.5739 61.7155 29.8737 61.668 29.18C61.5194 27.0087 61.1421 24.9008 60.5598 22.88C60.2498 21.8041 59.8818 20.7529 59.4592 19.73C59.2391 19.1971 59.0042 18.672 58.7551 18.155C58.3388 17.2913 57.8827 16.4505 57.3892 15.635C52.0931 6.88373 42.4844 1.03979 31.4997 1.03979C14.787 1.03979 1.25964 14.5672 1.25964 31.2798C1.25964 37.4992 3.13452 43.2763 6.34626 48.0781" stroke="#999999" stroke-width="1.52381" stroke-miterlimit="10" stroke-linecap="round" stroke-linejoin="round"/>
<path d="M54.1799 45.542C54.3983 45.2196 54.6094 44.8921 54.813 44.5596C55.1816 43.9578 55.5257 43.3398 55.8441 42.707C56.2546 41.8908 56.6222 41.0499 56.944 40.187C57.1568 39.6165 57.3495 39.0364 57.5213 38.4476C57.6868 37.8803 57.833 37.3048 57.959 36.722C58.0713 36.2027 58.1676 35.6775 58.2473 35.147C58.347 34.4842 58.4208 33.8131 58.4679 33.1346C58.5084 32.5496 58.5291 31.9591 58.5291 31.3638M56.5812 21.6199C56.9421 22.4828 57.2565 23.3697 57.5213 24.2774C57.6868 24.8448 57.833 25.4205 57.959 26.0035C58.094 26.6281 58.2059 27.2613 58.2937 27.902" stroke="#009EFF" stroke-width="1.52381" stroke-miterlimit="10" stroke-linecap="round" stroke-linejoin="round"/>
<path d="M50.7915 12.76C51.4234 13.4497 52.0196 14.1776 52.5762 14.9419C52.9242 15.4198 53.2567 15.9119 53.5727 16.4178C53.9113 16.9598 54.2311 17.5176 54.5308 18.0906" stroke="#009EFF" stroke-width="1.52381" stroke-miterlimit="10" stroke-linecap="round" stroke-linejoin="round"/>
<path d="M28.5891 27.1574L49.1326 17.228L35.0945 34.8612" stroke="#009EFF" stroke-width="1.52381"/>
</svg>
