<svg width="41" height="26" viewBox="0 0 41 26" fill="none" xmlns="http://www.w3.org/2000/svg">
<g clip-path="url(#clip0_405_6516)">
<path opacity="0.07" d="M37.7255 6.10352e-05H3.99595C3.15729 6.10352e-05 2.35299 0.333215 1.75997 0.926233C1.16696 1.51925 0.833801 2.32355 0.833801 3.16221L0.833801 22.1351C0.833801 22.9737 1.16696 23.7781 1.75997 24.3711C2.35299 24.9641 3.15729 25.2972 3.99595 25.2972H37.7255C38.5642 25.2972 39.3685 24.9641 39.9615 24.3711C40.5545 23.7781 40.8877 22.9737 40.8877 22.1351V3.16221C40.8877 2.32355 40.5545 1.51925 39.9615 0.926233C39.3685 0.333215 38.5642 6.10352e-05 37.7255 6.10352e-05V6.10352e-05Z" fill="black"/>
<path d="M37.7254 1.05408C38.2845 1.05408 38.8207 1.27618 39.2161 1.67152C39.6114 2.06687 39.8335 2.60307 39.8335 3.16218V22.1351C39.8335 22.6942 39.6114 23.2304 39.2161 23.6257C38.8207 24.0211 38.2845 24.2432 37.7254 24.2432H3.99585C3.43675 24.2432 2.90055 24.0211 2.5052 23.6257C2.10986 23.2304 1.88776 22.6942 1.88776 22.1351V3.16218C1.88776 2.60307 2.10986 2.06687 2.5052 1.67152C2.90055 1.27618 3.43675 1.05408 3.99585 1.05408H37.7254Z" fill="white"/>
<path d="M20.8606 21.0811C25.5177 21.0811 29.293 17.3058 29.293 12.6487C29.293 7.99162 25.5177 4.21631 20.8606 4.21631C16.2035 4.21631 12.4282 7.99162 12.4282 12.6487C12.4282 17.3058 16.2035 21.0811 20.8606 21.0811Z" fill="#8DC451"/>
<path d="M23.2008 12.0478C23.3832 11.6828 23.4423 11.2686 23.3694 10.8672C23.3637 10.5897 23.2974 10.3168 23.1752 10.0675C23.0531 9.81822 22.878 9.59861 22.6622 9.42397C22.4465 9.24934 22.1952 9.1239 21.9259 9.05641C21.6566 8.98891 21.3759 8.98099 21.1032 9.0332L20.8608 7.37834C20.8595 7.36447 20.8554 7.351 20.8489 7.33871C20.8423 7.32642 20.8334 7.31555 20.8226 7.30672C20.8118 7.2979 20.7994 7.29131 20.7861 7.28732C20.7727 7.28332 20.7587 7.28202 20.7449 7.28347L20.1335 7.37834C20.1072 7.38575 20.0848 7.40308 20.0711 7.42668C20.0573 7.45027 20.0532 7.47829 20.0597 7.50483L20.3443 9.17022L19.5854 9.30725L19.3008 7.68401C19.2995 7.67015 19.2954 7.65668 19.2889 7.64438C19.2823 7.63209 19.2734 7.62122 19.2626 7.6124C19.2519 7.60358 19.2394 7.59698 19.2261 7.59299C19.2127 7.589 19.1987 7.58769 19.1849 7.58915L18.6157 7.69455C18.5916 7.70186 18.5708 7.71758 18.5573 7.73885C18.5438 7.76012 18.5383 7.78554 18.5419 7.8105L18.837 9.48644L17.2349 9.77103C17.2086 9.77844 17.1862 9.79577 17.1724 9.81937C17.1587 9.84296 17.1546 9.87098 17.1611 9.89752L17.2665 10.5405C17.2678 10.5544 17.2719 10.5678 17.2784 10.5801C17.285 10.5924 17.2939 10.6033 17.3047 10.6121C17.3155 10.6209 17.3279 10.6275 17.3412 10.6315C17.3546 10.6355 17.3686 10.6368 17.3824 10.6354H17.4773C17.5854 10.6237 17.6947 10.6336 17.7989 10.6644C17.9031 10.6953 18.0002 10.7465 18.0845 10.8151C18.1688 10.8837 18.2387 10.9684 18.29 11.0642C18.3414 11.16 18.3733 11.265 18.3838 11.3732L18.9951 14.7567C19.0407 14.9575 19.0112 15.1681 18.9122 15.3487C18.8131 15.5293 18.6514 15.6674 18.4576 15.7369C18.4371 15.7434 18.419 15.7559 18.4058 15.7728C18.3927 15.7898 18.385 15.8104 18.3838 15.8318V16.5064C18.3715 16.5368 18.3715 16.5708 18.3838 16.6013C18.3969 16.6078 18.4113 16.6112 18.426 16.6112C18.4406 16.6112 18.455 16.6078 18.4681 16.6013L20.0492 16.3272L20.3338 17.9505C20.3389 17.9765 20.3537 17.9997 20.3752 18.0154C20.3967 18.031 20.4233 18.0379 20.4497 18.0348L21.0189 17.9294C21.0452 17.922 21.0676 17.9046 21.0814 17.881C21.0951 17.8574 21.0992 17.8294 21.0927 17.8029L20.8608 16.2218L21.6092 16.0848L21.8938 17.708C21.8989 17.7341 21.9137 17.7573 21.9352 17.7729C21.9567 17.7886 21.9833 17.7955 22.0097 17.7923L22.5789 17.6975C22.6052 17.6901 22.6276 17.6727 22.6414 17.6491C22.6551 17.6255 22.6592 17.5975 22.6527 17.571L22.3681 15.9478L22.7476 15.8845C23.0229 15.8427 23.2856 15.7408 23.5171 15.586C23.7486 15.4312 23.9432 15.2274 24.087 14.9889C24.2309 14.7505 24.3205 14.4833 24.3495 14.2064C24.3785 13.9294 24.3462 13.6495 24.2548 13.3864C24.2057 13.0914 24.0835 12.8135 23.8994 12.5778C23.7153 12.3421 23.4751 12.1563 23.2008 12.0372V12.0478ZM19.8068 10.6037L20.9346 10.4035C21.1491 10.3942 21.3596 10.4631 21.5271 10.5975C21.6945 10.7318 21.8074 10.9225 21.8448 11.1339C21.8822 11.3453 21.8415 11.563 21.7303 11.7467C21.6191 11.9303 21.4449 12.0673 21.2403 12.1321L20.1124 12.3324L19.8068 10.6037ZM22.0835 14.6618L20.5762 14.9253L20.2705 13.1967L21.7778 12.9332C21.9923 12.9239 22.2029 12.9928 22.3703 13.1272C22.5377 13.2616 22.6506 13.4522 22.688 13.6636C22.7254 13.875 22.6847 14.0928 22.5735 14.2764C22.4623 14.46 22.2882 14.597 22.0835 14.6618Z" fill="white"/>
</g>
<defs>
<clipPath id="clip0_405_6516">
<rect width="40.0539" height="25.2972" fill="white" transform="translate(0.833801 6.10352e-05)"/>
</clipPath>
</defs>
</svg>
