<svg width="41" height="27" viewBox="0 0 41 27" fill="none" xmlns="http://www.w3.org/2000/svg">
<g clip-path="url(#clip0_405_6592)">
<path opacity="0.07" d="M37.8383 0.959045H4.10868C2.3168 0.959045 0.946533 2.32931 0.946533 4.12119V23.0941C0.946533 24.886 2.4222 26.2562 4.10868 26.2562H37.8383C39.6301 26.2562 41.0004 24.886 41.0004 23.0941V4.12119C41.0004 2.32931 39.5247 0.959045 37.8383 0.959045Z" fill="black"/>
<path d="M37.8386 2.01306C38.9981 2.01306 39.9467 2.96171 39.9467 4.12116V23.094C39.9467 24.2535 38.9981 25.2021 37.8386 25.2021H4.10907C2.94962 25.2021 2.00098 24.2535 2.00098 23.094V4.12116C2.00098 2.96171 2.94962 2.01306 4.10907 2.01306H37.8386Z" fill="white"/>
<path d="M30.7759 11.605H30.4597C30.0381 12.659 29.7218 13.1861 29.4056 14.7671H31.4083C31.0921 13.1861 31.0921 12.4482 30.7759 11.605ZM33.8326 17.8239H32.0408C31.9354 17.8239 31.9354 17.8239 31.8299 17.7185L31.6191 16.7698L31.5137 16.559H28.984C28.8786 16.559 28.7732 16.559 28.7732 16.7698L28.457 17.7185C28.457 17.8239 28.3516 17.8239 28.3516 17.8239H26.1381L26.3489 17.2968L29.4056 10.1293C29.4056 9.60229 29.7218 9.39148 30.2489 9.39148H31.8299C31.9354 9.39148 32.0408 9.39148 32.0408 9.60229L33.5164 16.4536C33.6218 16.8752 33.7272 17.1914 33.7272 17.6131C33.8326 17.7185 33.8326 17.7185 33.8326 17.8239ZM19.7084 17.5077L20.13 15.6104C20.2354 15.6104 20.3408 15.7158 20.3408 15.7158C21.0786 16.032 21.8165 16.2428 22.5543 16.1374C22.7651 16.1374 23.0813 16.032 23.2921 15.9266C23.8192 15.7158 23.8192 15.1887 23.3976 14.7671C23.1867 14.5563 22.8705 14.4509 22.5543 14.2401C22.1327 14.0293 21.7111 13.8185 21.3949 13.5023C20.13 12.4482 20.5516 10.9726 21.2895 10.2347C21.9219 9.8131 22.2381 9.39148 23.0813 9.39148C24.3462 9.39148 25.7165 9.39148 26.3489 9.60229H26.4543C26.3489 10.2347 26.2435 10.7617 26.0327 11.3942C25.5057 11.1834 24.9786 10.9726 24.4516 10.9726C24.1354 10.9726 23.8192 10.9726 23.503 11.078C23.2921 11.078 23.1867 11.1834 23.0813 11.2888C22.8705 11.4996 22.8705 11.8158 23.0813 12.0266L23.6084 12.4482C24.03 12.659 24.4516 12.8698 24.7678 13.0807C25.2948 13.3969 25.8219 13.9239 25.9273 14.5563C26.1381 15.505 25.8219 16.3482 24.9786 16.9806C24.4516 17.4023 24.2408 17.6131 23.503 17.6131C22.0273 17.6131 20.8678 17.7185 19.9192 17.4023C19.8138 17.6131 19.8138 17.6131 19.7084 17.5077ZM16.0192 17.8239C16.1246 17.086 16.1246 17.086 16.23 16.7698C16.757 14.4509 17.2841 12.0266 17.7057 9.70769C17.8111 9.49688 17.8111 9.39148 18.0219 9.39148H19.9192C19.7084 10.6563 19.4976 11.605 19.1814 12.7644C18.8651 14.3455 18.5489 15.9266 18.1273 17.5077C18.1273 17.7185 18.0219 17.7185 17.8111 17.7185L16.0192 17.8239ZM6.21655 9.60229C6.21655 9.49688 6.42736 9.39148 6.53277 9.39148H10.1165C10.6436 9.39148 11.0652 9.70769 11.1706 10.2347L12.1192 14.8725C12.1192 14.9779 12.1192 14.9779 12.2246 15.0833C12.2246 14.9779 12.33 14.9779 12.33 14.9779L14.5435 9.60229C14.4381 9.49688 14.5435 9.39148 14.6489 9.39148H16.8624C16.8624 9.49688 16.8624 9.49688 16.757 9.60229L13.4895 17.2968C13.3841 17.5077 13.3841 17.6131 13.2787 17.7185C13.1733 17.8239 12.9625 17.7185 12.7517 17.7185H11.1706C11.0652 17.7185 10.9598 17.7185 10.9598 17.5077L9.2733 10.9726C9.06249 10.7617 8.74627 10.4455 8.32465 10.3401C7.69222 10.0239 6.53277 9.8131 6.32196 9.8131L6.21655 9.60229Z" fill="#142688"/>
</g>
<defs>
<clipPath id="clip0_405_6592">
<rect width="40.0539" height="25.2972" fill="white" transform="translate(0.946533 0.959045)"/>
</clipPath>
</defs>
</svg>
