<svg width="41" height="27" viewBox="0 0 41 27" fill="none" xmlns="http://www.w3.org/2000/svg">
<g clip-path="url(#clip0_405_6569)">
<path opacity="0.07" d="M37.7255 0.959045H3.99595C2.20407 0.959045 0.833801 2.32931 0.833801 4.12119V23.0941C0.833801 24.886 2.30947 26.2562 3.99595 26.2562H37.7255C39.5174 26.2562 40.8877 24.886 40.8877 23.0941V4.12119C40.8877 2.32931 39.412 0.959045 37.7255 0.959045Z" fill="black"/>
<path d="M37.7254 2.01306C38.8849 2.01306 39.8335 2.96171 39.8335 4.12116V23.094C39.8335 24.2535 38.8849 25.2021 37.7254 25.2021H3.99585C2.8364 25.2021 1.88776 24.2535 1.88776 23.094V4.12116C1.88776 2.96171 2.8364 2.01306 3.99585 2.01306H37.7254Z" fill="white"/>
<path d="M16.6451 20.9861C20.7201 20.9861 24.0235 17.6827 24.0235 13.6077C24.0235 9.53277 20.7201 6.22937 16.6451 6.22937C12.5702 6.22937 9.26678 9.53277 9.26678 13.6077C9.26678 17.6827 12.5702 20.9861 16.6451 20.9861Z" fill="#EB001B"/>
<path d="M25.0773 20.9861C29.1522 20.9861 32.4556 17.6827 32.4556 13.6077C32.4556 9.53277 29.1522 6.22937 25.0773 6.22937C21.0023 6.22937 17.6989 9.53277 17.6989 13.6077C17.6989 17.6827 21.0023 20.9861 25.0773 20.9861Z" fill="#F79E1B"/>
<path d="M24.0232 13.6077C24.0232 11.078 22.7583 8.86447 20.8611 7.59961C18.9638 8.96987 17.6989 11.1834 17.6989 13.6077C17.6989 16.032 18.9638 18.3509 20.8611 19.6158C22.7583 18.3509 24.0232 16.1374 24.0232 13.6077Z" fill="#FF5F00"/>
</g>
<defs>
<clipPath id="clip0_405_6569">
<rect width="40.0539" height="25.2972" fill="white" transform="translate(0.833801 0.959045)"/>
</clipPath>
</defs>
</svg>
