<svg width="41" height="26" viewBox="0 0 41 26" fill="none" xmlns="http://www.w3.org/2000/svg">
<g clip-path="url(#clip0_405_6511)">
<path opacity="0.07" d="M37.4476 6.10352e-05H3.71806C1.92617 6.10352e-05 0.555908 1.37032 0.555908 3.16221V22.1351C0.555908 23.927 2.03158 25.2972 3.71806 25.2972H37.4476C39.2395 25.2972 40.6098 23.927 40.6098 22.1351V3.16221C40.6098 1.37032 39.1341 6.10352e-05 37.4476 6.10352e-05Z" fill="black"/>
<path d="M37.448 1.05408C38.6074 1.05408 39.5561 2.00272 39.5561 3.16218V22.1351C39.5561 23.2945 38.6074 24.2432 37.448 24.2432H3.71839C2.55893 24.2432 1.61029 23.2945 1.61029 22.1351V3.16218C1.61029 2.00272 2.55893 1.05408 3.71839 1.05408H37.448Z" fill="white"/>
<path d="M23.3237 4.63784C18.8967 3.16217 14.1535 5.48107 12.5724 9.90808C10.9913 14.3351 13.4156 19.0783 17.8426 20.6594C22.2696 22.2405 27.0129 19.8161 28.5939 15.3891C30.0696 10.9621 27.7507 6.21891 23.3237 4.63784Z" fill="#EDA024"/>
<path d="M17.5266 8.74867L17.8428 7.69462C18.4753 7.90543 19.2131 8.11624 19.8455 8.43245C20.0563 7.90543 20.2671 7.3784 20.3725 6.74597L21.3212 7.06219L20.7942 8.64326L21.6374 8.95947L22.1644 7.3784L23.1131 7.69462C22.9023 8.22164 22.6914 8.74866 22.586 9.38109L23.0077 9.5919C23.3239 9.80271 23.6401 10.0135 23.9563 10.3297C24.2725 10.646 24.3779 10.9622 24.4833 11.3838C24.4833 11.7 24.4833 12.0162 24.2725 12.3324C24.0617 12.8595 23.7455 13.1757 23.1131 13.2811H22.9023C23.1131 13.3865 23.2185 13.4919 23.3239 13.7027C23.7455 14.1243 23.8509 14.5459 23.7455 15.1784C23.7455 15.2838 23.7455 15.3892 23.6401 15.4946C23.6401 15.6 23.6401 15.6 23.5347 15.7054C23.4293 15.9162 23.3239 16.0216 23.3239 16.2324C23.0077 16.7594 22.4806 17.1811 21.7428 17.1811C21.2158 17.1811 20.6888 17.1811 20.2671 17.0757L19.8455 16.9702C19.6347 17.4973 19.4239 18.0243 19.3185 18.6567L18.3698 18.3405C18.5807 17.8135 18.7915 17.2865 18.8969 16.7594L18.0536 16.4432C17.8428 16.9702 17.632 17.4973 17.5266 18.0243L16.578 17.7081C16.7888 17.1811 16.9996 16.654 17.105 16.0216L15.1023 15.3892L15.7347 14.2297C15.9455 14.3351 16.2617 14.4405 16.4726 14.4405C16.6834 14.5459 16.8942 14.4405 16.9996 14.2297L18.4753 9.80271V9.69731C18.4753 9.38109 18.3698 9.17028 18.0536 9.17028C18.0536 8.95947 17.8428 8.85407 17.5266 8.74867ZM18.7915 15.073C19.3185 15.2838 19.7401 15.3892 20.1617 15.4946C20.4779 15.6 20.6888 15.6 21.005 15.6C21.2158 15.6 21.3212 15.6 21.532 15.4946C22.059 15.1784 22.1644 14.4405 21.7428 14.0189L21.1104 13.4919C20.7942 13.2811 20.3725 13.1757 19.9509 13.0703C19.8455 13.0703 19.6347 12.9649 19.5293 12.8595L18.7915 15.073ZM19.8455 11.8054C20.1617 11.9108 20.3725 12.0162 20.5834 12.0162C20.8996 12.1216 21.2158 12.227 21.532 12.1216C21.9536 12.1216 22.2698 12.0162 22.3752 11.5946C22.4806 11.2784 22.4806 10.9622 22.3752 10.7514C22.2698 10.5405 22.059 10.4351 21.8482 10.3297C21.532 10.1189 21.2158 10.0135 20.7942 9.90812L20.4779 9.80271C20.3725 10.5405 20.0563 11.173 19.8455 11.8054Z" fill="white"/>
</g>
<defs>
<clipPath id="clip0_405_6511">
<rect width="40.0539" height="25.2972" fill="white" transform="translate(0.555908 6.10352e-05)"/>
</clipPath>
</defs>
</svg>
