<svg width="25" height="36" viewBox="0 0 25 36" fill="none" xmlns="http://www.w3.org/2000/svg">
<g clip-path="url(#clip0_319_12652)">
<path d="M24.0384 0.043335H1.27625C0.910687 0.043335 0.613953 0.359106 0.613953 0.74812V34.716C0.613953 35.105 0.910687 35.4208 1.27625 35.4208H18.5842C18.7595 35.4208 18.9284 35.3461 19.0524 35.2142L24.5066 29.4101C24.6306 29.2781 24.7007 29.0984 24.7007 28.9119V0.74812C24.7007 0.359106 24.404 0.043335 24.0384 0.043335ZM19.2452 33.0162L19.2426 29.6125L22.4411 29.616L19.2452 33.0162ZM23.3761 28.2071L18.5803 28.2023H18.5797C18.4044 28.2023 18.2356 28.2769 18.1115 28.4089C17.9875 28.5415 17.9174 28.7205 17.9174 28.9077L17.9219 34.0112H1.93854V1.4529H23.3761V28.2071Z" fill="#999999"/>
<path d="M7.39921 25.4695C5.73373 25.4695 4.37927 26.9108 4.37927 28.6832C4.37927 30.4555 5.73438 31.8968 7.39921 31.8968C9.06469 31.8968 10.4191 30.4555 10.4191 28.6832C10.4198 26.9108 9.06469 25.4695 7.39921 25.4695ZM7.39921 30.488C6.4642 30.488 5.70321 29.6782 5.70321 28.6832C5.70321 27.6882 6.46355 26.8791 7.39921 26.8791C8.33486 26.8791 9.0952 27.6882 9.0952 28.6832C9.0952 29.6782 8.33421 30.488 7.39921 30.488Z" fill="#00A0FF"/>
<path d="M16.0344 28.0917H12.3918C12.0262 28.0917 11.7295 28.4074 11.7295 28.7965C11.7295 29.1855 12.0262 29.5012 12.3918 29.5012H16.0344C16.4 29.5012 16.6967 29.1855 16.6967 28.7965C16.6967 28.4074 16.4006 28.0917 16.0344 28.0917Z" fill="#999999"/>
<path d="M7.16025 4.27136H5.24024C4.87468 4.27136 4.57794 4.58713 4.57794 4.97615C4.57794 5.36516 4.87468 5.68093 5.24024 5.68093H7.1609C7.52646 5.68093 7.82319 5.36516 7.82319 4.97615C7.82319 4.58713 7.52646 4.27136 7.16025 4.27136Z" fill="#999999"/>
<path d="M20.3393 4.27136H14.578C14.2124 4.27136 13.9157 4.58713 13.9157 4.97615C13.9157 5.36516 14.2124 5.68093 14.578 5.68093H20.3393C20.7049 5.68093 21.0016 5.36516 21.0016 4.97615C21.0016 4.58713 20.7049 4.27136 20.3393 4.27136Z" fill="#00A0FF"/>
<path d="M20.3393 7.302H10.538C10.1724 7.302 9.87567 7.61777 9.87567 8.00679C9.87567 8.3958 10.1724 8.71157 10.538 8.71157H20.3393C20.7048 8.71157 21.0016 8.3958 21.0016 8.00679C21.0016 7.61777 20.7048 7.302 20.3393 7.302Z" fill="#00A0FF"/>
<path d="M20.3724 12.869H4.94226C4.5767 12.869 4.27997 13.1848 4.27997 13.5738C4.27997 13.9628 4.5767 14.2786 4.94226 14.2786H20.3724C20.738 14.2786 21.0347 13.9628 21.0347 13.5738C21.0347 13.1848 20.738 12.869 20.3724 12.869Z" fill="#999999"/>
<path d="M20.3724 15.2654H4.94226C4.5767 15.2654 4.27997 15.5812 4.27997 15.9702C4.27997 16.3592 4.5767 16.675 4.94226 16.675H20.3724C20.738 16.675 21.0347 16.3592 21.0347 15.9702C21.0347 15.5812 20.738 15.2654 20.3724 15.2654Z" fill="#999999"/>
<path d="M20.3724 17.873H4.94226C4.5767 17.873 4.27997 18.1888 4.27997 18.5778C4.27997 18.9668 4.5767 19.2826 4.94226 19.2826H20.3724C20.738 19.2826 21.0347 18.9668 21.0347 18.5778C21.0347 18.1888 20.738 17.873 20.3724 17.873Z" fill="#999999"/>
<path d="M20.3724 20.2693H20.0082C19.6426 20.2693 19.3459 20.5851 19.3459 20.9741C19.3459 21.3631 19.6426 21.6789 20.0082 21.6789H20.3724C20.738 21.6789 21.0347 21.3631 21.0347 20.9741C21.0347 20.5844 20.738 20.2693 20.3724 20.2693Z" fill="#999999"/>
<path d="M17.6902 20.2693H4.94226C4.5767 20.2693 4.27997 20.5851 4.27997 20.9741C4.27997 21.3631 4.5767 21.6789 4.94226 21.6789H17.6908C18.0564 21.6789 18.3531 21.3631 18.3531 20.9741C18.3524 20.5844 18.0557 20.2693 17.6902 20.2693Z" fill="#999999"/>
</g>
<defs>
<clipPath id="clip0_319_12652">
<rect width="24.0868" height="35.3774" fill="white" transform="translate(0.613953 0.043335)"/>
</clipPath>
</defs>
</svg>
