<svg width="37" height="36" viewBox="0 0 37 36" fill="none" xmlns="http://www.w3.org/2000/svg">
<g clip-path="url(#clip0_319_12640)">
<path d="M34.0461 25.8913C33.9085 25.5121 33.4943 25.3186 33.1217 25.4584L25.6367 28.2636C25.2634 28.4034 25.0728 28.8241 25.2104 29.2025C25.3177 29.4978 25.5929 29.6806 25.8858 29.6806C25.9683 29.6806 26.0523 29.6663 26.1349 29.6354L33.6199 26.8302C33.9932 26.6904 34.1837 26.2697 34.0461 25.8913Z" fill="#999999"/>
<path d="M24.5033 29.4678C24.3657 29.0887 23.9514 28.8952 23.5788 29.0349L23.262 29.1539C22.8894 29.2937 22.6982 29.7144 22.8358 30.0928C22.943 30.3881 23.2182 30.5709 23.5111 30.5709C23.5937 30.5709 23.6776 30.5565 23.7602 30.5257L24.077 30.4067C24.4496 30.2663 24.6409 29.8463 24.5033 29.4678Z" fill="#009EFF"/>
<path d="M34.046 22.9119C33.9084 22.5328 33.4942 22.3393 33.1216 22.479L27.2067 24.6958C26.8334 24.8356 26.6429 25.2563 26.7805 25.6347C26.8878 25.93 27.163 26.1128 27.4558 26.1128C27.5384 26.1128 27.6224 26.0985 27.7049 26.0676L33.6205 23.8508C33.9931 23.7111 34.1837 23.2911 34.046 22.9119Z" fill="#999999"/>
<path d="M34.046 19.9648C33.9084 19.5856 33.4942 19.3921 33.1216 19.5319L27.2067 21.7487C26.8334 21.8885 26.6429 22.3092 26.7805 22.6876C26.8878 22.9829 27.163 23.1657 27.4558 23.1657C27.5384 23.1657 27.6224 23.1513 27.7049 23.1205L33.6205 20.9037C33.9931 20.7639 34.1837 20.3432 34.046 19.9648Z" fill="#009EFF"/>
<path d="M36.4989 6.58929L19.1537 0.0886106C18.9928 0.0284059 18.8163 0.0284059 18.6555 0.0886106L1.31016 6.58929V6.59C1.2537 6.6115 1.19866 6.63946 1.14785 6.67529C0.954501 6.81147 0.839478 7.03581 0.839478 7.27519V28.1892C0.839478 28.4952 1.02718 28.769 1.31016 28.8751L18.6555 35.3757C18.7366 35.4058 18.8206 35.4209 18.9046 35.4209C18.9892 35.4209 19.0739 35.4051 19.1537 35.375V35.3757L36.4989 28.8751C36.7819 28.769 36.9696 28.4952 36.9696 28.1892V7.27519C36.9696 6.96843 36.7819 6.69536 36.4989 6.58929ZM18.1848 33.6406L2.27904 27.6796V8.32376L5.51805 9.53788V18.3951C5.51805 18.7012 5.70576 18.975 5.98873 19.081L13.7617 21.9938C13.8428 22.0239 13.9268 22.039 14.0108 22.039C14.1561 22.039 14.3001 21.9945 14.4222 21.9078C14.6155 21.7709 14.7305 21.5473 14.7305 21.3079V12.9903L18.1855 14.2847L18.1848 33.6406ZM13.291 12.4506V20.2586L6.95761 17.8848V10.0769L13.291 12.4506ZM8.31672 9.02256L14.0108 6.88888L19.7048 9.02256L14.0108 11.1562L8.31672 9.02256ZM18.9046 12.9961L16.0819 11.9382L22.0328 9.70775C22.3157 9.60167 22.5035 9.32788 22.5035 9.02184C22.5035 8.7158 22.3157 8.44201 22.0328 8.33594L14.2599 5.42318C14.099 5.36297 13.9225 5.36297 13.7617 5.42318L6.22936 8.24635L3.63815 7.27519L18.9046 1.55359L34.171 7.27447L18.9046 12.9961ZM35.5301 27.6796L19.6243 33.6406V14.2847L35.5301 8.32376V27.6796Z" fill="#999999"/>
</g>
<defs>
<clipPath id="clip0_319_12640">
<rect width="36.1301" height="35.3774" fill="white" transform="translate(0.839478 0.043457)"/>
</clipPath>
</defs>
</svg>
