<svg width="36" height="36" viewBox="0 0 36 36" fill="none" xmlns="http://www.w3.org/2000/svg">
<g clip-path="url(#clip0_319_12660)">
<path d="M34.8631 3.2639L32.7224 1.1378C31.3268 -0.248277 28.9746 -0.32912 27.4788 0.958148L23.7177 4.1967C23.6697 4.23816 23.6279 4.28722 23.5952 4.34112L19.933 10.3995L17.5814 11.1775C17.3824 11.2432 17.2329 11.4069 17.1842 11.6087C17.1355 11.8105 17.1967 12.024 17.3449 12.1711L23.7532 18.5349C23.868 18.6489 24.0217 18.7104 24.1803 18.7104C24.2269 18.7104 24.2729 18.7049 24.3188 18.6945C24.5226 18.6469 24.6868 18.4976 24.7529 18.3L25.537 15.9638L31.7261 12.252C31.7804 12.2195 31.8298 12.178 31.8708 12.1304L35.0545 8.46618C36.345 6.98406 36.2588 4.64998 34.8631 3.2639ZM34.1417 7.68331L31.0207 11.275L24.723 15.0518C24.5999 15.1257 24.5073 15.2404 24.4621 15.3758L23.9167 17.0003L22.4723 15.5658L22.4716 15.5652L20.3358 13.4439L20.3351 13.4432L18.8908 12.0088L20.5264 11.467C20.6635 11.4214 20.779 11.3295 20.8534 11.2065L24.5811 5.04037L28.2705 1.8647C29.2967 0.98095 30.9107 1.03554 31.8681 1.98631L34.0088 4.11241C34.9668 5.06387 35.0259 6.66552 34.1417 7.68331Z" fill="#009EFF"/>
<path d="M33.1502 24.1525C31.3761 22.3912 28.7657 21.7784 26.4003 22.5405L13.5608 9.78871C14.3274 7.43943 13.711 4.84623 11.9376 3.08496C10.0689 1.22903 7.27143 0.647924 4.80996 1.60629C4.62003 1.68023 4.48089 1.84399 4.43914 2.04229C4.3974 2.2406 4.45932 2.44582 4.60333 2.58954L8.4465 6.40643L5.88346 8.95195L2.0403 5.13437C1.89628 4.99134 1.68896 4.92984 1.48928 4.9713C1.28961 5.01276 1.12473 5.15095 1.05028 5.33958C0.0860137 7.78353 0.67042 10.5619 2.53913 12.4185C4.31322 14.1798 6.92357 14.7927 9.28902 14.0312L14.0902 18.7996L8.11116 24.7378L4.30835 26.8494C4.2026 26.9081 4.11702 26.9972 4.06276 27.105L2.35407 30.499C2.23788 30.7298 2.2831 31.009 2.46747 31.1914L4.60333 33.3126C4.71952 33.428 4.87397 33.4882 5.03051 33.4882C5.12234 33.4882 5.21487 33.4674 5.30045 33.4246L8.71783 31.7276C8.82636 31.6737 8.91611 31.5887 8.97525 31.4837L11.1014 27.7068L17.0804 21.7694L22.1286 26.783C21.3619 29.1323 21.9783 31.7248 23.7524 33.4868C25.0228 34.7485 26.7231 35.4208 28.4548 35.4208C29.2701 35.4208 30.0925 35.2715 30.88 34.9654C31.07 34.8915 31.2091 34.7277 31.2509 34.5294C31.2926 34.3311 31.2307 34.1259 31.0867 33.9822L27.2435 30.1653L29.8065 27.6198L33.6497 31.4367C33.7937 31.5797 34.0011 31.6412 34.2007 31.5997C34.4004 31.5583 34.5653 31.4201 34.6397 31.2315C35.6033 28.7868 35.0189 26.0084 33.1502 24.1525ZM10.1879 26.9171C10.1482 26.9564 10.1148 27 10.0877 27.0483L8.01167 30.7367L5.15017 32.158L3.63002 30.6483L5.06112 27.8063L8.77488 25.7445C8.82358 25.7175 8.86811 25.6844 8.90707 25.645L14.9452 19.6481L16.2268 20.9209L10.1879 26.9171ZM33.7854 29.8744L30.2337 26.347C29.9979 26.1128 29.6152 26.1128 29.3794 26.347L25.962 29.741C25.8486 29.8537 25.7853 30.0064 25.7853 30.1653C25.7853 30.3242 25.8493 30.4769 25.962 30.5895L29.5136 34.1169C27.7528 34.4645 25.9056 33.9276 24.6067 32.6383C23.0775 31.1195 22.5996 28.8462 23.3885 26.8459C23.4762 26.6241 23.4233 26.3712 23.2535 26.2026L9.87343 12.914C9.75794 12.7993 9.60349 12.7384 9.44625 12.7384C9.37251 12.7384 9.29737 12.7523 9.22571 12.7799C7.21229 13.5635 4.92267 13.0888 3.39347 11.57C2.09456 10.28 1.55399 8.44547 1.90463 6.69664L5.45629 10.224C5.69214 10.4583 6.07479 10.4583 6.31064 10.224L9.72802 6.83C9.96387 6.59576 9.96387 6.21573 9.72802 5.98149L6.17636 2.45411C7.93723 2.10586 9.78437 2.64343 11.0833 3.93278C12.6125 5.45152 13.0904 7.7248 12.3015 9.72514C12.2138 9.94694 12.2667 10.1998 12.4365 10.3684L25.8166 23.6571C25.9863 23.8257 26.241 23.8782 26.4643 23.7911C28.4784 23.0076 30.7673 23.4823 32.2965 25.001C33.5948 26.2911 34.1353 28.1256 33.7854 29.8744Z" fill="#999999"/>
</g>
<defs>
<clipPath id="clip0_319_12660">
<rect width="35.3774" height="35.3774" fill="white" transform="translate(0.591919 0.043335)"/>
</clipPath>
</defs>
</svg>
