<svg width="20" height="20" viewBox="0 0 20 20" fill="none" xmlns="http://www.w3.org/2000/svg">
<g clip-path="url(#clip0_405_6428)">
<path d="M6.54542 19.1818C7.44916 19.1818 8.18178 18.4492 8.18178 17.5455C8.18178 16.6417 7.44916 15.9091 6.54542 15.9091C5.64168 15.9091 4.90906 16.6417 4.90906 17.5455C4.90906 18.4492 5.64168 19.1818 6.54542 19.1818Z" stroke="#323941" stroke-width="1.27585" stroke-linecap="round" stroke-linejoin="round"/>
<path d="M16.3637 19.1818C17.2674 19.1818 18 18.4492 18 17.5455C18 16.6417 17.2674 15.9091 16.3637 15.9091C15.4599 15.9091 14.7273 16.6417 14.7273 17.5455C14.7273 18.4492 15.4599 19.1818 16.3637 19.1818Z" stroke="#323941" stroke-width="1.27585" stroke-linecap="round" stroke-linejoin="round"/>
<path d="M4.63915 5.27273H18.8182L17.4437 12.1373C17.3689 12.514 17.164 12.8523 16.8648 13.0932C16.5656 13.334 16.1913 13.4619 15.8073 13.4546H7.15915C6.75962 13.4579 6.37265 13.315 6.07122 13.0528C5.76978 12.7905 5.57471 12.4271 5.52278 12.0309L4.27915 2.60546C4.22757 2.21211 4.03486 1.85089 3.73686 1.58901C3.43886 1.32713 3.05586 1.18242 2.65915 1.18182H0.818237" stroke="#323941" stroke-width="1.27585" stroke-linecap="round" stroke-linejoin="round"/>
</g>
<defs>
<clipPath id="clip0_405_6428">
<rect width="19.6364" height="19.6364" fill="white" transform="translate(0 0.363647)"/>
</clipPath>
</defs>
</svg>
