<svg width="20" height="20" viewBox="0 0 20 20" fill="none" xmlns="http://www.w3.org/2000/svg">
<path d="M4.64762 12.9652C6.42973 15.0874 8.57501 16.7584 11.0235 17.9407C11.9558 18.3809 13.2025 18.903 14.5915 18.9925C14.6776 18.9963 14.76 19 14.8461 19C15.7783 19 16.5271 18.6792 17.1374 18.0191C17.1411 18.0153 17.1486 18.0079 17.1524 18.0004C17.3695 17.7393 17.6166 17.5044 17.8749 17.2545C18.0509 17.0866 18.2306 16.9113 18.4028 16.7323C19.2003 15.9043 19.2003 14.8525 18.3954 14.0506L16.1452 11.809C15.7634 11.4136 15.3066 11.2047 14.8274 11.2047C14.3482 11.2047 13.8877 11.4136 13.4945 11.8052L12.1542 13.1405C12.0307 13.0696 11.9034 13.0062 11.7836 12.9465C11.6338 12.8719 11.4953 12.8011 11.3717 12.7228C10.1512 11.9507 9.043 10.9436 7.98347 9.6494C7.44808 8.9743 7.08867 8.40738 6.83782 7.82926C7.18975 7.51223 7.51922 7.18027 7.83745 6.85578C7.94977 6.74016 8.06583 6.62453 8.18189 6.50891C8.58624 6.10609 8.80339 5.63987 8.80339 5.16618C8.80339 4.6925 8.58998 4.22627 8.18189 3.82346L7.0662 2.71198C6.93516 2.58143 6.81161 2.45462 6.68432 2.32408C6.43722 2.07045 6.17889 1.80937 5.9243 1.57439C5.53868 1.19768 5.08566 1 4.60644 1C4.13096 1 3.6742 1.19768 3.27359 1.57812L1.87336 2.97306C1.36419 3.48031 1.0759 4.09573 1.016 4.80812C0.944866 5.69954 1.1096 6.64691 1.53641 7.79196C2.1916 9.56361 3.18 11.2085 4.64762 12.9652Z" stroke="#323941" stroke-width="1.5"/>
</svg>
